<svg width="583" height="123" viewBox="0 0 583 123" fill="none" xmlns="http://www.w3.org/2000/svg">
<g clip-path="url(#clip0_1_14)">
<path d="M94.8238 11.5H38.4027C28.2392 11.5 20 19.7392 20 29.9027V86.3238C20 96.4872 28.2392 104.726 38.4027 104.726H94.8238C104.987 104.726 113.226 96.4872 113.226 86.3238V29.9027C113.226 19.7392 104.987 11.5 94.8238 11.5Z" fill="#016E7D"/>
<path d="M94.642 12H38.358C28.2192 12 20 20.2192 20 30.358V86.642C20 96.7808 28.2192 105 38.358 105H94.642C104.781 105 113 96.7808 113 86.642V30.358C113 20.2192 104.781 12 94.642 12Z" fill="#7D42FB"/>
<path d="M96.2696 52.4293V34.1131L36.6882 34.1131V42.4576H87.9667V50.3849C84.6289 51.3446 82.209 54.432 82.209 58.0619C82.209 61.6918 84.6289 64.7376 87.9667 65.6972V73.6245H45.0327V51.8452H36.6882V81.969H96.3113V63.6528L91.3463 60.1063V56.0175L96.3113 52.4711L96.2696 52.4293Z" fill="#EDF7FF"/>
</g>
<path d="M135.886 93.5V23.6818H148.534V53.2386H180.886V23.6818H193.568V93.5H180.886V63.8409H148.534V93.5H135.886ZM229.96 94.5227C224.71 94.5227 220.176 93.4318 216.358 91.25C212.563 89.0455 209.642 85.9318 207.597 81.9091C205.551 77.8636 204.528 73.1023 204.528 67.625C204.528 62.2386 205.551 57.5114 207.597 53.4432C209.665 49.3523 212.551 46.1705 216.256 43.8977C219.96 41.6023 224.312 40.4545 229.312 40.4545C232.54 40.4545 235.585 40.9773 238.449 42.0227C241.335 43.0455 243.881 44.6364 246.085 46.7955C248.313 48.9545 250.063 51.7045 251.335 55.0455C252.608 58.3636 253.244 62.3182 253.244 66.9091V70.6932H210.324V62.375H241.415C241.392 60.0114 240.881 57.9091 239.881 56.0682C238.881 54.2045 237.483 52.7386 235.688 51.6705C233.915 50.6023 231.847 50.0682 229.483 50.0682C226.96 50.0682 224.744 50.6818 222.835 51.9091C220.926 53.1136 219.438 54.7045 218.369 56.6818C217.324 58.6364 216.79 60.7841 216.767 63.125V70.3864C216.767 73.4318 217.324 76.0455 218.438 78.2273C219.551 80.3864 221.108 82.0455 223.108 83.2045C225.108 84.3409 227.449 84.9091 230.131 84.9091C231.926 84.9091 233.551 84.6591 235.006 84.1591C236.46 83.6364 237.722 82.875 238.79 81.875C239.858 80.875 240.665 79.6364 241.21 78.1591L252.733 79.4545C252.006 82.5 250.619 85.1591 248.574 87.4318C246.551 89.6818 243.96 91.4318 240.801 92.6818C237.642 93.9091 234.028 94.5227 229.96 94.5227ZM276.026 23.6818V93.5H263.685V23.6818H276.026ZM288.716 113.136V41.1364H300.852V49.7955H301.568C302.205 48.5227 303.102 47.1705 304.261 45.7386C305.42 44.2841 306.989 43.0455 308.966 42.0227C310.943 40.9773 313.466 40.4545 316.534 40.4545C320.58 40.4545 324.227 41.4886 327.477 43.5568C330.75 45.6023 333.341 48.6364 335.25 52.6591C337.182 56.6591 338.148 61.5682 338.148 67.3864C338.148 73.1364 337.205 78.0227 335.318 82.0455C333.432 86.0682 330.864 89.1364 327.614 91.25C324.364 93.3636 320.682 94.4205 316.568 94.4205C313.568 94.4205 311.08 93.9205 309.102 92.9205C307.125 91.9205 305.534 90.7159 304.33 89.3068C303.148 87.875 302.227 86.5227 301.568 85.25H301.057V113.136H288.716ZM300.818 67.3182C300.818 70.7045 301.295 73.6705 302.25 76.2159C303.227 78.7614 304.625 80.75 306.443 82.1818C308.284 83.5909 310.511 84.2955 313.125 84.2955C315.852 84.2955 318.136 83.5682 319.977 82.1136C321.818 80.6364 323.205 78.625 324.136 76.0795C325.091 73.5114 325.568 70.5909 325.568 67.3182C325.568 64.0682 325.102 61.1818 324.17 58.6591C323.239 56.1364 321.852 54.1591 320.011 52.7273C318.17 51.2955 315.875 50.5795 313.125 50.5795C310.489 50.5795 308.25 51.2727 306.409 52.6591C304.568 54.0455 303.17 55.9886 302.216 58.4886C301.284 60.9886 300.818 63.9318 300.818 67.3182ZM368.148 94.4205C364.034 94.4205 360.352 93.3636 357.102 91.25C353.852 89.1364 351.284 86.0682 349.398 82.0455C347.511 78.0227 346.568 73.1364 346.568 67.3864C346.568 61.5682 347.523 56.6591 349.432 52.6591C351.364 48.6364 353.966 45.6023 357.239 43.5568C360.511 41.4886 364.159 40.4545 368.182 40.4545C371.25 40.4545 373.773 40.9773 375.75 42.0227C377.727 43.0455 379.295 44.2841 380.455 45.7386C381.614 47.1705 382.511 48.5227 383.148 49.7955H383.659V23.6818H396.034V93.5H383.898V85.25H383.148C382.511 86.5227 381.591 87.875 380.386 89.3068C379.182 90.7159 377.591 91.9205 375.614 92.9205C373.636 93.9205 371.148 94.4205 368.148 94.4205ZM371.591 84.2955C374.205 84.2955 376.432 83.5909 378.273 82.1818C380.114 80.75 381.511 78.7614 382.466 76.2159C383.42 73.6705 383.898 70.7045 383.898 67.3182C383.898 63.9318 383.42 60.9886 382.466 58.4886C381.534 55.9886 380.148 54.0455 378.307 52.6591C376.489 51.2727 374.25 50.5795 371.591 50.5795C368.841 50.5795 366.545 51.2955 364.705 52.7273C362.864 54.1591 361.477 56.1364 360.545 58.6591C359.614 61.1818 359.148 64.0682 359.148 67.3182C359.148 70.5909 359.614 73.5114 360.545 76.0795C361.5 78.625 362.898 80.6364 364.739 82.1136C366.602 83.5682 368.886 84.2955 371.591 84.2955ZM432.366 94.5227C427.116 94.5227 422.582 93.4318 418.764 91.25C414.969 89.0455 412.048 85.9318 410.003 81.9091C407.957 77.8636 406.935 73.1023 406.935 67.625C406.935 62.2386 407.957 57.5114 410.003 53.4432C412.071 49.3523 414.957 46.1705 418.662 43.8977C422.366 41.6023 426.719 40.4545 431.719 40.4545C434.946 40.4545 437.991 40.9773 440.855 42.0227C443.741 43.0455 446.287 44.6364 448.491 46.7955C450.719 48.9545 452.469 51.7045 453.741 55.0455C455.014 58.3636 455.651 62.3182 455.651 66.9091V70.6932H412.73V62.375H443.821C443.798 60.0114 443.287 57.9091 442.287 56.0682C441.287 54.2045 439.889 52.7386 438.094 51.6705C436.321 50.6023 434.253 50.0682 431.889 50.0682C429.366 50.0682 427.151 50.6818 425.241 51.9091C423.332 53.1136 421.844 54.7045 420.776 56.6818C419.73 58.6364 419.196 60.7841 419.173 63.125V70.3864C419.173 73.4318 419.73 76.0455 420.844 78.2273C421.957 80.3864 423.514 82.0455 425.514 83.2045C427.514 84.3409 429.855 84.9091 432.537 84.9091C434.332 84.9091 435.957 84.6591 437.412 84.1591C438.866 83.6364 440.128 82.875 441.196 81.875C442.264 80.875 443.071 79.6364 443.616 78.1591L455.139 79.4545C454.412 82.5 453.026 85.1591 450.98 87.4318C448.957 89.6818 446.366 91.4318 443.207 92.6818C440.048 93.9091 436.435 94.5227 432.366 94.5227ZM507.477 54.9773L496.227 56.2045C495.909 55.0682 495.352 54 494.557 53C493.784 52 492.739 51.1932 491.42 50.5795C490.102 49.9659 488.489 49.6591 486.58 49.6591C484.011 49.6591 481.852 50.2159 480.102 51.3295C478.375 52.4432 477.523 53.8864 477.545 55.6591C477.523 57.1818 478.08 58.4205 479.216 59.375C480.375 60.3295 482.284 61.1136 484.943 61.7273L493.875 63.6364C498.83 64.7045 502.511 66.3977 504.92 68.7159C507.352 71.0341 508.58 74.0682 508.602 77.8182C508.58 81.1136 507.614 84.0227 505.705 86.5455C503.818 89.0455 501.193 91 497.83 92.4091C494.466 93.8182 490.602 94.5227 486.239 94.5227C479.83 94.5227 474.67 93.1818 470.761 90.5C466.852 87.7955 464.523 84.0341 463.773 79.2159L475.807 78.0568C476.352 80.4205 477.511 82.2045 479.284 83.4091C481.057 84.6136 483.364 85.2159 486.205 85.2159C489.136 85.2159 491.489 84.6136 493.261 83.4091C495.057 82.2045 495.955 80.7159 495.955 78.9432C495.955 77.4432 495.375 76.2045 494.216 75.2273C493.08 74.25 491.307 73.5 488.898 72.9773L479.966 71.1023C474.943 70.0568 471.227 68.2955 468.818 65.8182C466.409 63.3182 465.216 60.1591 465.239 56.3409C465.216 53.1136 466.091 50.3182 467.864 47.9545C469.659 45.5682 472.148 43.7273 475.33 42.4318C478.534 41.1136 482.227 40.4545 486.409 40.4545C492.545 40.4545 497.375 41.7614 500.898 44.375C504.443 46.9886 506.636 50.5227 507.477 54.9773ZM530.028 77.0682L529.994 62.1705H531.972L550.79 41.1364H565.21L542.062 66.9091H539.506L530.028 77.0682ZM518.778 93.5V23.6818H531.119V93.5H518.778ZM551.642 93.5L534.597 69.6705L542.915 60.9773L566.403 93.5H551.642Z" fill="white"/>
<defs>
<clipPath id="clip0_1_14">
<rect width="94" height="94" fill="white" transform="translate(20 11.5)"/>
</clipPath>
</defs>
</svg>
