<svg width="16" height="16" viewBox="0 0 16 16" fill="none" xmlns="http://www.w3.org/2000/svg">
<g clip-path="url(#clip0_630_47683)">
<path fill-rule="evenodd" clip-rule="evenodd" d="M4 0.75C4.27614 0.75 4.5 0.973858 4.5 1.25V2.25H5.5C5.77614 2.25 6 2.47386 6 2.75C6 3.02614 5.77614 3.25 5.5 3.25H4.5V4.25C4.5 4.52614 4.27614 4.75 4 4.75C3.72386 4.75 3.5 4.52614 3.5 4.25V3.25H2.5C2.22386 3.25 2 3.02614 2 2.75C2 2.47386 2.22386 2.25 2.5 2.25H3.5V1.25C3.5 0.973858 3.72386 0.75 4 0.75ZM8.74972 2.33683C9.00744 1.64034 9.99255 1.64034 10.2503 2.33683L11.1107 4.66221C11.364 5.34651 11.9035 5.88604 12.5878 6.13925L14.9132 6.99972C15.6097 7.25744 15.6097 8.24255 14.9132 8.50028L12.5878 9.36075C11.9035 9.61396 11.364 10.1535 11.1107 10.8378L10.2503 13.1632C9.99256 13.8597 9.00745 13.8597 8.74972 13.1632L7.88925 10.8378C7.63604 10.1535 7.09651 9.61396 6.41221 9.36075L4.08683 8.50028C3.39034 8.24256 3.39034 7.25745 4.08683 6.99972L6.41221 6.13925C7.09651 5.88604 7.63604 5.34651 7.88925 4.66221L8.74972 2.33683ZM9.5 3.19077L8.8271 5.00925C8.4726 5.96727 7.71727 6.7226 6.75925 7.0771L4.94077 7.75L6.75925 8.4229C7.71727 8.7774 8.4726 9.53273 8.8271 10.4908L9.5 12.3092L10.1729 10.4908C10.5274 9.53273 11.2827 8.7774 12.2408 8.4229L14.0592 7.75L12.2408 7.0771C11.2827 6.7226 10.5274 5.96727 10.1729 5.00925L9.5 3.19077ZM3.5 10.75C3.5 10.4739 3.27614 10.25 3 10.25C2.72386 10.25 2.5 10.4739 2.5 10.75V12.25H1C0.723858 12.25 0.5 12.4739 0.5 12.75C0.5 13.0261 0.723858 13.25 1 13.25H2.5V14.75C2.5 15.0261 2.72386 15.25 3 15.25C3.27614 15.25 3.5 15.0261 3.5 14.75V13.25H5C5.27614 13.25 5.5 13.0261 5.5 12.75C5.5 12.4739 5.27614 12.25 5 12.25H3.5V10.75Z" fill="#171717"/>
</g>
<defs>
<clipPath id="clip0_630_47683">
<rect width="16" height="16" fill="white"/>
</clipPath>
</defs>
</svg>
