<svg width="16" height="16" viewBox="0 0 16 16" fill="none" xmlns="http://www.w3.org/2000/svg">
<path fill-rule="evenodd" clip-rule="evenodd" d="M8 14C11.3137 14 14 11.3137 14 8C14 4.68629 11.3137 2 8 2C4.68629 2 2 4.68629 2 8C2 11.3137 4.68629 14 8 14ZM8 15C11.866 15 15 11.866 15 8C15 4.13401 11.866 1 8 1C4.13401 1 1 4.13401 1 8C1 11.866 4.13401 15 8 15ZM8 5.75C8.48325 5.75 8.875 5.35825 8.875 4.875C8.875 4.39175 8.48325 4 8 4C7.51675 4 7.125 4.39175 7.125 4.875C7.125 5.35825 7.51675 5.75 8 5.75ZM8.5 7.43555C8.5 7.1594 8.27614 6.93555 8 6.93555C7.72386 6.93555 7.5 7.1594 7.5 7.43555V11.143C7.5 11.4191 7.72386 11.643 8 11.643C8.27614 11.643 8.5 11.4191 8.5 11.143V7.43555Z" fill="#171717"/>
</svg>
