<svg width="16" height="16" viewBox="0 0 16 16" fill="none" xmlns="http://www.w3.org/2000/svg">
<path fill-rule="evenodd" clip-rule="evenodd" d="M5.00915 1.67113C6.43756 0.996093 8.0523 0.824124 9.59083 1.18318L9.47719 1.67009L9.59083 1.18318C11.1294 1.54222 12.5012 2.41118 13.4833 3.64873L13.4833 3.64875C14.4653 4.8863 14.9999 6.41969 15 7.99959V7.99961V8.64961C15 9.29937 14.7419 9.92256 14.2824 10.382C13.8229 10.8415 13.1998 11.0996 12.55 11.0996C11.9002 11.0996 11.2771 10.8415 10.8176 10.382C10.6732 10.2376 10.5487 10.077 10.4458 9.90455C9.87852 10.6319 8.99387 11.0996 8.00001 11.0996C6.28792 11.0996 4.90001 9.71167 4.90001 7.99961C4.90001 6.28752 6.28792 4.8996 8.00001 4.8996C8.81015 4.8996 9.54773 5.21039 10.1 5.71924V5.3996C10.1 5.12346 10.3239 4.8996 10.6 4.8996C10.8761 4.8996 11.1 5.12346 11.1 5.3996V7.99961V8.64961C11.1 9.03414 11.2528 9.40298 11.5247 9.67491C11.7966 9.94684 12.1654 10.0996 12.55 10.0996C12.9345 10.0996 13.3034 9.94684 13.5753 9.67491C13.8472 9.40298 14 9.03414 14 8.64961V7.99964C14 7.99963 14 7.99962 14 7.99961C13.9999 6.64545 13.5417 5.33113 12.7 4.27036C11.8582 3.20959 10.6823 2.46476 9.36356 2.15701L9.477 1.67093L9.36356 2.15701C8.04482 1.84925 6.66077 1.99665 5.43641 2.57525L5.24134 2.16246L5.43641 2.57525C4.21207 3.15384 3.21944 4.12961 2.61996 5.34387C2.02048 6.55813 1.84939 7.93946 2.13451 9.26331C2.41962 10.5871 3.14418 11.7756 4.19038 12.6354C5.23657 13.4952 6.54286 13.9758 7.89687 13.9991C9.25083 14.0224 10.5729 13.587 11.648 12.7636C11.8673 12.5958 12.1811 12.6374 12.349 12.8566C12.5169 13.0759 12.4752 13.3897 12.256 13.5576C11.0017 14.5181 9.45929 15.0261 7.87968 14.999C6.30002 14.9718 4.77601 14.4111 3.55545 13.408L3.55543 13.408C2.33489 12.4048 1.48956 11.0183 1.15692 9.47385C0.824284 7.92937 1.02389 6.31782 1.72329 4.90118L2.16883 5.12114L1.72329 4.90117C2.42268 3.48454 3.58074 2.34615 5.00915 1.67113ZM10.1 7.99961C10.1 6.83981 9.15978 5.8996 8.00001 5.8996C6.84021 5.8996 5.90001 6.8398 5.90001 7.99961C5.90001 9.15939 6.84021 10.0996 8.00001 10.0996C9.15978 10.0996 10.1 9.15939 10.1 7.99961Z" fill="#171717"/>
</svg>
