<svg width="16" height="16" viewBox="0 0 16 16" fill="none" xmlns="http://www.w3.org/2000/svg">
<path fill-rule="evenodd" clip-rule="evenodd" d="M3.95285 2.54013C3.92327 2.49299 3.85726 2.48621 3.81872 2.52636L2.78495 3.60321C2.49506 3.90517 2.42141 4.33187 2.58844 4.68366C2.84601 5.22612 3.21996 5.95835 3.69649 6.74891L5.43393 5.02622C5.46235 4.99804 5.46743 4.95393 5.44616 4.92004L3.95285 2.54013ZM4.24582 7.61247L6.13802 5.73633C6.49871 5.37871 6.56318 4.81878 6.29322 4.38854L4.79991 2.00863C4.42446 1.41026 3.58655 1.32423 3.09734 1.83383L2.06356 2.91068C1.5064 3.49105 1.32751 4.35947 1.68509 5.11258C2.28411 6.37416 3.52561 8.7043 5.26657 10.4746C7.06249 12.3007 9.57172 13.7019 10.8504 14.3515C11.543 14.7033 12.3555 14.5979 12.952 14.1386L14.0769 13.2726C14.655 12.8276 14.6383 11.9504 14.0437 11.5278L11.6815 9.8484C11.2788 9.56215 10.7337 9.58388 10.3551 9.90126L8.26207 11.6559C7.46625 11.1043 6.66377 10.4691 5.97956 9.77337C5.32734 9.11017 4.74593 8.35658 4.24582 7.61247ZM9.13302 12.2307C9.9712 12.7581 10.7475 13.1776 11.3033 13.4599C11.6309 13.6264 12.0318 13.5851 12.342 13.3463L13.4669 12.4802C13.5124 12.4452 13.5111 12.3761 13.4643 12.3428L11.102 10.6634C11.0703 10.6409 11.0274 10.6426 10.9975 10.6676L9.13302 12.2307Z" fill="#171717"/>
</svg>
