<svg width="16" height="16" viewBox="0 0 16 16" fill="none" xmlns="http://www.w3.org/2000/svg">
<path d="M2.95666 10.9519L3.43743 11.0892C3.47703 10.9506 3.45487 10.8016 3.37664 10.6805L2.95666 10.9519ZM2 14.3002L1.51924 14.1628C1.46737 14.3444 1.52219 14.5397 1.66095 14.6677C1.79972 14.7957 1.99878 14.8347 2.17556 14.7684L2 14.3002ZM5.30327 13.0615L5.5283 12.615C5.40365 12.5521 5.25841 12.5443 5.12771 12.5933L5.30327 13.0615ZM13.5 7.7002C13.5 10.7378 11.0376 13.2002 8 13.2002V14.2002C11.5899 14.2002 14.5 11.29 14.5 7.7002H13.5ZM8 2.2002C11.0376 2.2002 13.5 4.66263 13.5 7.7002H14.5C14.5 4.11034 11.5899 1.2002 8 1.2002V2.2002ZM2.5 7.7002C2.5 4.66263 4.96243 2.2002 8 2.2002V1.2002C4.41015 1.2002 1.5 4.11034 1.5 7.7002H2.5ZM3.37664 10.6805C2.82199 9.82205 2.5 8.79949 2.5 7.7002H1.5C1.5 8.99774 1.88071 10.2079 2.53669 11.2232L3.37664 10.6805ZM2.48076 14.4376L3.43743 11.0892L2.4759 10.8145L1.51924 14.1628L2.48076 14.4376ZM5.12771 12.5933L1.82444 13.832L2.17556 14.7684L5.47883 13.5296L5.12771 12.5933ZM8 13.2002C7.11006 13.2002 6.27085 12.9892 5.5283 12.615L5.07824 13.508C5.9572 13.951 6.95021 14.2002 8 14.2002V13.2002Z" fill="#171717"/>
</svg>
