<svg width="14" height="14" viewBox="0 0 14 14" fill="none" xmlns="http://www.w3.org/2000/svg">
<path d="M3.48339 10.5033L3.725 10.0655L3.725 10.0655L3.48339 10.5033ZM3.70226 10.8602L3.20373 10.8219L3.70226 10.8602ZM3.5 11.8125L3.02825 11.6468H3.02825L3.5 11.8125ZM3.14499 12.5597L3.57196 12.8199H3.57196L3.14499 12.5597ZM3.21409 12.7015L3.19921 13.2012H3.19921L3.21409 12.7015ZM4.8125 12.25L5.04604 12.6921H5.04604L4.8125 12.25ZM5.98677 11.4115L5.71069 10.9947L5.71069 10.9947L5.98677 11.4115ZM6.28665 11.3427L6.33203 10.8448H6.33203L6.28665 11.3427ZM7 11.875C10.5398 11.875 13.625 9.60213 13.625 6.5625H12.625C12.625 8.83861 10.2256 10.875 7 10.875V11.875ZM13.625 6.5625C13.625 3.52287 10.5398 1.25 7 1.25V2.25C10.2256 2.25 12.625 4.28639 12.625 6.5625H13.625ZM7 1.25C3.46016 1.25 0.375 3.52287 0.375 6.5625H1.375C1.375 4.28639 3.77435 2.25 7 2.25V1.25ZM0.375 6.5625C0.375 8.41929 1.5487 10.0066 3.24179 10.941L3.725 10.0655C2.26322 9.25874 1.375 7.96506 1.375 6.5625H0.375ZM3.24179 10.941C3.24812 10.9445 3.23994 10.9422 3.2281 10.9239C3.21398 10.9021 3.20041 10.865 3.20373 10.8219L4.20079 10.8985C4.23213 10.4906 3.97247 10.2021 3.725 10.0655L3.24179 10.941ZM3.20373 10.8219C3.18688 11.0411 3.12193 11.3801 3.02825 11.6468L3.97175 11.9782C4.09585 11.6248 4.17763 11.1999 4.20079 10.8985L3.20373 10.8219ZM3.02825 11.6468C2.92756 11.9335 2.79729 12.1694 2.71802 12.2995L3.57196 12.8199C3.67422 12.652 3.84069 12.3513 3.97175 11.9782L3.02825 11.6468ZM2.71802 12.2995C2.6129 12.472 2.60075 12.6846 2.68624 12.866C2.7754 13.0552 2.96583 13.1943 3.19921 13.2012L3.22896 12.2017C3.3904 12.2065 3.52755 12.3055 3.59079 12.4396C3.65035 12.566 3.63962 12.7088 3.57196 12.8199L2.71802 12.2995ZM3.19921 13.2012C3.53773 13.2113 4.18431 13.1473 5.04604 12.6921L4.57896 11.8079C3.87271 12.181 3.39768 12.2067 3.22896 12.2017L3.19921 13.2012ZM5.04604 12.6921C5.31374 12.5507 5.54397 12.3793 5.74029 12.2259C5.9483 12.0632 6.10116 11.9355 6.26285 11.8284L5.71069 10.9947C5.5055 11.1306 5.29829 11.3021 5.12442 11.438C4.93886 11.5831 4.7654 11.7094 4.57896 11.8079L5.04604 12.6921ZM6.26285 11.8284C6.25092 11.8363 6.24122 11.8392 6.23713 11.8401C6.2335 11.8409 6.23483 11.8401 6.24127 11.8406L6.33203 10.8448C6.13692 10.827 5.91139 10.8617 5.71069 10.9947L6.26285 11.8284ZM6.24127 11.8406C6.49038 11.8633 6.74356 11.875 7 11.875V10.875C6.77385 10.875 6.55095 10.8647 6.33203 10.8448L6.24127 11.8406Z" fill="#7C7C7C"/>
</svg>
