<svg width="16" height="17" viewBox="0 0 16 17" fill="none" xmlns="http://www.w3.org/2000/svg">
<path fill-rule="evenodd" clip-rule="evenodd" d="M10.8373 5.9446C11.9769 5.9446 12.9007 5.0208 12.9007 3.88123C12.9007 2.74167 11.9769 1.81787 10.8373 1.81787C9.69773 1.81787 8.77393 2.74167 8.77393 3.88123C8.77393 5.0208 9.69773 5.9446 10.8373 5.9446ZM8.16495 7.22954C8.56659 7.07566 9.00077 6.99219 9.45043 6.99219H11.7067C13.3917 6.99219 14.8506 8.16249 15.2161 9.80736L15.2907 10.1431C15.5749 11.4218 14.6019 12.6348 13.292 12.6348H11.095C10.8243 12.6348 10.6027 12.4193 10.5952 12.1487C10.5838 11.7419 10.4269 10.6986 9.92263 9.90624C9.69003 9.54073 9.30361 9.19906 8.88236 8.91632C8.46472 8.636 8.05122 8.4391 7.80609 8.34962C7.62303 8.28279 7.49547 8.11569 7.47927 7.92148C7.46308 7.72727 7.5612 7.54135 7.73068 7.44513L7.76298 7.42674L7.76299 7.42673C7.88009 7.35998 7.99407 7.29501 8.16495 7.22954ZM4.29281 8.53955C2.60781 8.53955 1.1489 9.70985 0.78337 11.3547L0.708768 11.6904C0.424612 12.9691 1.39764 14.1821 2.70753 14.1821H8.13434C9.44424 14.1821 10.4173 12.9691 10.1331 11.6904L10.0585 11.3547C9.69298 9.70985 8.23406 8.53955 6.54906 8.53955H4.29281ZM5.42089 7.49218C6.7029 7.49218 7.74218 6.4529 7.74218 5.17089C7.74218 3.88888 6.7029 2.84961 5.42089 2.84961C4.13888 2.84961 3.09961 3.88888 3.09961 5.17089C3.09961 6.4529 4.13888 7.49218 5.42089 7.49218Z" fill="#171717"/>
</svg>
