<svg width="18" height="18" viewBox="0 0 18 18" fill="none" xmlns="http://www.w3.org/2000/svg">
<g clip-path="url(#clip0_1411_42115)">
<path fill-rule="evenodd" clip-rule="evenodd" d="M13.514 4.36633C13.514 5.09605 12.9224 5.68761 12.1927 5.68761C11.463 5.68761 10.8714 5.09605 10.8714 4.36633C10.8714 3.6366 11.463 3.04504 12.1927 3.04504C12.9224 3.04504 13.514 3.6366 13.514 4.36633ZM14.514 4.36633C14.514 5.64834 13.4747 6.68761 12.1927 6.68761C10.9107 6.68761 9.87143 5.64834 9.87143 4.36633C9.87143 3.08432 10.9107 2.04504 12.1927 2.04504C13.4747 2.04504 14.514 3.08432 14.514 4.36633ZM10.6328 7.92858C10.1347 7.92858 9.65377 8.02104 9.20895 8.19146C9.02169 8.2632 8.8409 8.34873 8.66793 8.44694L9.16167 9.31655C9.29125 9.24298 9.42661 9.17895 9.56672 9.12527C9.89925 8.99787 10.259 8.92858 10.6328 8.92858H13.171C14.5687 8.92858 15.7788 9.89929 16.082 11.2636L16.1659 11.6413C16.3381 12.4163 15.7484 13.1515 14.9545 13.1515H13.4282H12.4829V14.1515H13.4282H14.9545C16.3881 14.1515 17.4531 12.8239 17.1421 11.4244L17.0581 11.0467C16.6533 9.22482 15.0374 7.92858 13.171 7.92858H10.6328ZM4.82999 10.6695C3.43237 10.6695 2.22226 11.6403 1.91907 13.0046L1.83515 13.3823C1.66293 14.1573 2.25266 14.8924 3.04656 14.8924H9.15171C9.94562 14.8924 10.5353 14.1573 10.3631 13.3823L10.2792 13.0046C9.97601 11.6403 8.76591 10.6695 7.36828 10.6695H4.82999ZM0.942887 12.7877C1.34775 10.9658 2.96367 9.66954 4.82999 9.66954H7.36828C9.23461 9.66954 10.8505 10.9658 11.2554 12.7877L11.3393 13.1653C11.6503 14.5648 10.5854 15.8924 9.15171 15.8924H3.04656C1.61291 15.8924 0.547959 14.5648 0.858961 13.1653L0.942887 12.7877ZM7.71078 5.81713C7.71078 6.70711 6.98932 7.42857 6.09934 7.42857C5.20936 7.42857 4.4879 6.70711 4.4879 5.81713C4.4879 4.92715 5.20936 4.20569 6.09934 4.20569C6.98932 4.20569 7.71078 4.92715 7.71078 5.81713ZM8.71078 5.81713C8.71078 7.25939 7.5416 8.42857 6.09934 8.42857C4.65708 8.42857 3.4879 7.25939 3.4879 5.81713C3.4879 4.37487 4.65708 3.20569 6.09934 3.20569C7.5416 3.20569 8.71078 4.37487 8.71078 5.81713Z" fill="#525252"/>
</g>
<defs>
<clipPath id="clip0_1411_42115">
<rect width="18" height="18" fill="white"/>
</clipPath>
</defs>
</svg>
