<svg width="16" height="16" viewBox="0 0 16 16" fill="none" xmlns="http://www.w3.org/2000/svg">
<path fill-rule="evenodd" clip-rule="evenodd" d="M11.9013 3.88123C11.9013 4.46851 11.4252 4.9446 10.8379 4.9446C10.2507 4.9446 9.77457 4.46851 9.77457 3.88123C9.77457 3.29396 10.2507 2.81787 10.8379 2.81787C11.4252 2.81787 11.9013 3.29396 11.9013 3.88123ZM12.9013 3.88123C12.9013 5.0208 11.9775 5.9446 10.8379 5.9446C9.69837 5.9446 8.77457 5.0208 8.77457 3.88123C8.77457 2.74167 9.69837 1.81787 10.8379 1.81787C11.9775 1.81787 12.9013 2.74167 12.9013 3.88123ZM9.45131 6.99212C9.00165 6.99212 8.56746 7.0756 8.16583 7.22947C7.99675 7.29425 7.83353 7.37147 7.67737 7.46013L8.17111 8.32974C8.28387 8.26572 8.40167 8.21 8.52359 8.16328C8.81294 8.05243 9.12597 7.99212 9.45131 7.99212H11.7076C12.9239 7.99212 13.977 8.83689 14.2408 10.0242L14.3154 10.3599C14.4608 11.0141 13.963 11.6347 13.2928 11.6347H11.9361H11.0959V12.6347H11.9361H13.2928C14.6027 12.6347 15.5758 11.4217 15.2916 10.143L15.217 9.80729C14.8515 8.16242 13.3926 6.99212 11.7076 6.99212H9.45131ZM4.29329 9.53964C3.077 9.53964 2.0239 10.3844 1.76004 11.5717L1.68544 11.9075C1.54007 12.5616 2.03787 13.1822 2.70802 13.1822H8.13483C8.80498 13.1822 9.30278 12.5616 9.1574 11.9075L9.0828 11.5717C8.81895 10.3844 7.76585 9.53964 6.54955 9.53964H4.29329ZM0.783858 11.3548C1.14938 9.70995 2.6083 8.53964 4.29329 8.53964H6.54955C8.23455 8.53964 9.69346 9.70995 10.059 11.3548L10.1336 11.6905C10.4177 12.9692 9.44472 14.1822 8.13483 14.1822H2.70802C1.39812 14.1822 0.4251 12.9692 0.709257 11.6905L0.783858 11.3548ZM6.74289 5.17084C6.74289 5.90056 6.15133 6.49212 5.4216 6.49212C4.69188 6.49212 4.10032 5.90056 4.10032 5.17084C4.10032 4.44111 4.69188 3.84955 5.4216 3.84955C6.15133 3.84955 6.74289 4.44111 6.74289 5.17084ZM7.74289 5.17084C7.74289 6.45285 6.70361 7.49212 5.4216 7.49212C4.13959 7.49212 3.10032 6.45285 3.10032 5.17084C3.10032 3.88883 4.13959 2.84955 5.4216 2.84955C6.70361 2.84955 7.74289 3.88883 7.74289 5.17084Z" fill="#171717"/>
</svg>
