<svg width="18" height="18" viewBox="0 0 18 18" fill="none" xmlns="http://www.w3.org/2000/svg">
<g clip-path="url(#clip0_1411_42105)">
<path fill-rule="evenodd" clip-rule="evenodd" d="M1.1875 9C1.1875 4.68528 4.68528 1.1875 9 1.1875C13.3147 1.1875 16.8125 4.68528 16.8125 9C16.8125 13.3147 13.3147 16.8125 9 16.8125C4.68528 16.8125 1.1875 13.3147 1.1875 9ZM9 2.1875C5.23756 2.1875 2.1875 5.23756 2.1875 9C2.1875 10.7261 2.82944 12.3022 3.8876 13.5027C4.6871 12.3102 6.31172 10.7723 8.99596 10.75L9.00011 10.75C11.1371 10.75 13.0177 11.8443 14.1133 13.5017C15.1709 12.3013 15.8125 10.7256 15.8125 9C15.8125 5.23756 12.7624 2.1875 9 2.1875ZM13.3825 14.216C12.4832 12.7372 10.8575 11.7507 9.00218 11.75C6.62711 11.7705 5.24222 13.2012 4.61685 14.2154C5.80154 15.2121 7.33065 15.8125 9 15.8125C10.669 15.8125 12.1979 15.2123 13.3825 14.216ZM9 5.5625C8.0335 5.5625 7.25 6.346 7.25 7.3125C7.25 8.279 8.0335 9.0625 9 9.0625C9.9665 9.0625 10.75 8.279 10.75 7.3125C10.75 6.346 9.9665 5.5625 9 5.5625ZM6.25 7.3125C6.25 5.79372 7.48122 4.5625 9 4.5625C10.5188 4.5625 11.75 5.79372 11.75 7.3125C11.75 8.83128 10.5188 10.0625 9 10.0625C7.48122 10.0625 6.25 8.83128 6.25 7.3125Z" fill="#525252"/>
</g>
<defs>
<clipPath id="clip0_1411_42105">
<rect width="18" height="18" fill="white"/>
</clipPath>
</defs>
</svg>
