<svg width="16" height="17" viewBox="0 0 16 17" fill="none" xmlns="http://www.w3.org/2000/svg">
<path fill-rule="evenodd" clip-rule="evenodd" d="M1 8C1 4.13401 4.13401 1 8 1C11.866 1 15 4.13401 15 8C15 9.87217 14.265 11.5727 13.0679 12.8287L13.0726 12.838L12.8336 13.0633C11.6514 14.1921 10.0745 14.9112 8.33096 14.9923C8.2212 14.9974 8.11078 15 7.99976 15C7.61309 15 7.23371 14.9686 6.86403 14.9083C5.45701 14.6786 4.19059 14.0294 3.19839 13.0938L2.92627 12.8373L2.93112 12.8277C1.73456 11.5717 1 9.87165 1 8ZM12.5508 11.9104C11.5617 10.4562 9.89278 9.50002 7.99995 9.5L7.9958 9.50003C5.63018 9.51967 4.18081 10.8515 3.4501 11.9115C2.54631 10.8611 2 9.49437 2 8C2 4.68629 4.68629 2 8 2C11.3137 2 14 4.68629 14 8C14 9.49386 13.4541 10.8602 12.5508 11.9104ZM8 4C6.61929 4 5.5 5.11929 5.5 6.5C5.5 7.88071 6.61929 9 8 9C9.38071 9 10.5 7.88071 10.5 6.5C10.5 5.11929 9.38071 4 8 4Z" fill="#171717"/>
</svg>
