<svg width="16" height="16" viewBox="0 0 16 16" fill="none" xmlns="http://www.w3.org/2000/svg">
<path fill-rule="evenodd" clip-rule="evenodd" d="M1 8C1 4.13401 4.13401 1 8 1C11.866 1 15 4.13401 15 8C15 11.866 11.866 15 8 15C4.13401 15 1 11.866 1 8ZM8 2C4.68629 2 2 4.68629 2 8C2 9.49445 2.54637 10.8613 3.45026 11.9117C4.18198 10.85 5.63088 9.51962 7.99595 9.49999L8.0001 9.49996C9.89288 9.49997 11.5617 10.4561 12.5509 11.9103C13.4541 10.8601 14 9.49381 14 8C14 4.68629 11.3137 2 8 2ZM11.823 12.6246C11.0285 11.3488 9.61399 10.5007 8.00216 10.5C5.9479 10.5178 4.73721 11.7367 4.17659 12.6242C5.21474 13.4836 6.54706 14 8 14C9.45275 14 10.7849 13.4837 11.823 12.6246ZM8 5C7.17157 5 6.5 5.67157 6.5 6.5C6.5 7.32843 7.17157 8 8 8C8.82843 8 9.5 7.32843 9.5 6.5C9.5 5.67157 8.82843 5 8 5ZM5.5 6.5C5.5 5.11929 6.61929 4 8 4C9.38071 4 10.5 5.11929 10.5 6.5C10.5 7.88071 9.38071 9 8 9C6.61929 9 5.5 7.88071 5.5 6.5Z" fill="#171717"/>
</svg>
