<svg width="18" height="18" viewBox="0 0 18 18" fill="none" xmlns="http://www.w3.org/2000/svg">
<g clip-path="url(#clip0_1411_42072)">
<path fill-rule="evenodd" clip-rule="evenodd" d="M4.375 1.75C3.54657 1.75 2.875 2.42157 2.875 3.25V5.75C2.875 6.57843 3.54657 7.25 4.375 7.25H6.875C7.70343 7.25 8.375 6.57843 8.375 5.75V3.25C8.375 2.42157 7.70343 1.75 6.875 1.75H4.375ZM3.875 3.25C3.875 2.97386 4.09886 2.75 4.375 2.75H6.875C7.15114 2.75 7.375 2.97386 7.375 3.25V5.75C7.375 6.02614 7.15114 6.25 6.875 6.25H4.375C4.09886 6.25 3.875 6.02614 3.875 5.75V3.25ZM11.125 10.75C10.2966 10.75 9.625 11.4216 9.625 12.25V14.75C9.625 15.5784 10.2966 16.25 11.125 16.25H13.625C14.4534 16.25 15.125 15.5784 15.125 14.75V12.25C15.125 11.4216 14.4534 10.75 13.625 10.75H11.125ZM10.625 12.25C10.625 11.9739 10.8489 11.75 11.125 11.75H13.625C13.9011 11.75 14.125 11.9739 14.125 12.25V14.75C14.125 15.0261 13.9011 15.25 13.625 15.25H11.125C10.8489 15.25 10.625 15.0261 10.625 14.75V12.25ZM9.625 3.25C9.625 2.42157 10.2966 1.75 11.125 1.75H13.625C14.4534 1.75 15.125 2.42157 15.125 3.25V8C15.125 8.82843 14.4534 9.5 13.625 9.5H11.125C10.2966 9.5 9.625 8.82843 9.625 8V3.25ZM11.125 2.75C10.8489 2.75 10.625 2.97386 10.625 3.25V8C10.625 8.27614 10.8489 8.5 11.125 8.5H13.625C13.9011 8.5 14.125 8.27614 14.125 8V3.25C14.125 2.97386 13.9011 2.75 13.625 2.75H11.125ZM4.375 8.5C3.54657 8.5 2.875 9.17157 2.875 10V14.75C2.875 15.5784 3.54657 16.25 4.375 16.25H6.875C7.70343 16.25 8.375 15.5784 8.375 14.75V10C8.375 9.17157 7.70343 8.5 6.875 8.5H4.375ZM3.875 10C3.875 9.72386 4.09886 9.5 4.375 9.5H6.875C7.15114 9.5 7.375 9.72386 7.375 10V14.75C7.375 15.0261 7.15114 15.25 6.875 15.25H4.375C4.09886 15.25 3.875 15.0261 3.875 14.75V10Z" fill="#525252"/>
</g>
<defs>
<clipPath id="clip0_1411_42072">
<rect width="18" height="18" fill="white"/>
</clipPath>
</defs>
</svg>
