<svg width="16" height="17" viewBox="0 0 16 17" fill="none" xmlns="http://www.w3.org/2000/svg">
<path fill-rule="evenodd" clip-rule="evenodd" d="M2.5 3.25C2.5 2.42157 3.17157 1.75 4 1.75H6C6.82843 1.75 7.5 2.42157 7.5 3.25V5.25C7.5 6.07843 6.82843 6.75 6 6.75H4C3.17157 6.75 2.5 6.07843 2.5 5.25V3.25ZM8.5 11.25C8.5 10.4216 9.17157 9.75 10 9.75H12C12.8284 9.75 13.5 10.4216 13.5 11.25V13.25C13.5 14.0784 12.8284 14.75 12 14.75H10C9.17157 14.75 8.5 14.0784 8.5 13.25V11.25ZM10 1.75C9.17157 1.75 8.5 2.42157 8.5 3.25V7.25C8.5 8.07843 9.17157 8.75 10 8.75H12C12.8284 8.75 13.5 8.07843 13.5 7.25V3.25C13.5 2.42157 12.8284 1.75 12 1.75H10ZM2.5 9.25C2.5 8.42157 3.17157 7.75 4 7.75H6C6.82843 7.75 7.5 8.42157 7.5 9.25V13.25C7.5 14.0784 6.82843 14.75 6 14.75H4C3.17157 14.75 2.5 14.0784 2.5 13.25V9.25Z" fill="#171717"/>
</svg>
