<svg width="16" height="16" viewBox="0 0 16 16" fill="none" xmlns="http://www.w3.org/2000/svg">
<path fill-rule="evenodd" clip-rule="evenodd" d="M3 1C2.17157 1 1.5 1.67157 1.5 2.5V4.5C1.5 5.32843 2.17157 6 3 6H6C6.82843 6 7.5 5.32843 7.5 4.5V2.5C7.5 1.67157 6.82843 1 6 1H3ZM2.5 2.5C2.5 2.22386 2.72386 2 3 2H6C6.27614 2 6.5 2.22386 6.5 2.5V4.5C6.5 4.77614 6.27614 5 6 5H3C2.72386 5 2.5 4.77614 2.5 4.5V2.5ZM10 10C9.17157 10 8.5 10.6716 8.5 11.5V13.5C8.5 14.3284 9.17157 15 10 15H13C13.8284 15 14.5 14.3284 14.5 13.5V11.5C14.5 10.6716 13.8284 10 13 10H10ZM9.5 11.5C9.5 11.2239 9.72386 11 10 11H13C13.2761 11 13.5 11.2239 13.5 11.5V13.5C13.5 13.7761 13.2761 14 13 14H10C9.72386 14 9.5 13.7761 9.5 13.5V11.5ZM8.5 2.5C8.5 1.67157 9.17157 1 10 1H13C13.8284 1 14.5 1.67157 14.5 2.5V7.5C14.5 8.32843 13.8284 9 13 9H10C9.17157 9 8.5 8.32843 8.5 7.5V2.5ZM10 2C9.72386 2 9.5 2.22386 9.5 2.5V7.5C9.5 7.77614 9.72386 8 10 8H13C13.2761 8 13.5 7.77614 13.5 7.5V2.5C13.5 2.22386 13.2761 2 13 2H10ZM3 7C2.17157 7 1.5 7.67157 1.5 8.5V13.5C1.5 14.3284 2.17157 15 3 15H6C6.82843 15 7.5 14.3284 7.5 13.5V8.5C7.5 7.67157 6.82843 7 6 7H3ZM2.5 8.5C2.5 8.22386 2.72386 8 3 8H6C6.27614 8 6.5 8.22386 6.5 8.5V13.5C6.5 13.7761 6.27614 14 6 14H3C2.72386 14 2.5 13.7761 2.5 13.5V8.5Z" fill="#171717"/>
</svg>
