<svg width="16" height="16" viewBox="0 0 16 16" fill="none" xmlns="http://www.w3.org/2000/svg">
<g filter="url(#filter0_b_5_8105)">
<path fill-rule="evenodd" clip-rule="evenodd" d="M3.67578 2.31152H5.76953V2.08204C5.76953 1.25362 6.4411 0.582044 7.26953 0.582044H8.72849C9.55692 0.582044 10.2285 1.25362 10.2285 2.08204V2.31152H12.3232H12.8232V2.31974H14.0536C14.3298 2.31974 14.5536 2.5436 14.5536 2.81974C14.5536 3.09589 14.3298 3.31974 14.0536 3.31974H12.8232V12.9179C12.8232 14.2986 11.7039 15.4179 10.3232 15.4179H5.67578C4.29507 15.4179 3.17578 14.2986 3.17578 12.9179V3.31974H1.94727C1.67112 3.31974 1.44727 3.09589 1.44727 2.81974C1.44727 2.5436 1.67112 2.31974 1.94727 2.31974H3.17578V2.31152H3.67578ZM4.17578 3.31974V12.9179C4.17578 13.7463 4.84735 14.4179 5.67578 14.4179H10.3232C11.1516 14.4179 11.8232 13.7463 11.8232 12.9179V3.31974H4.17578ZM9.22849 2.31152H6.76953V2.08204C6.76953 1.8059 6.99339 1.58204 7.26953 1.58204H8.72849C9.00463 1.58204 9.22849 1.8059 9.22849 2.08204V2.31152ZM6.48633 5.77051C6.76247 5.77051 6.98633 5.99437 6.98633 6.27051V11.4589C6.98633 11.7351 6.76247 11.9589 6.48633 11.9589C6.21019 11.9589 5.98633 11.7351 5.98633 11.4589V6.27051C5.98633 5.99437 6.21019 5.77051 6.48633 5.77051ZM10.0137 6.27047C10.0137 5.99433 9.78988 5.77047 9.51374 5.77047C9.23759 5.77047 9.01374 5.99433 9.01374 6.27047V11.4589C9.01374 11.735 9.23759 11.9589 9.51374 11.9589C9.78988 11.9589 10.0137 11.735 10.0137 11.4589V6.27047Z" fill="#171717"/>
</g>
<defs>
<filter id="filter0_b_5_8105" x="-4" y="-4" width="24" height="24" filterUnits="userSpaceOnUse" color-interpolation-filters="sRGB">
<feFlood flood-opacity="0" result="BackgroundImageFix"/>
<feGaussianBlur in="BackgroundImageFix" stdDeviation="2"/>
<feComposite in2="SourceAlpha" operator="in" result="effect1_backgroundBlur_5_8105"/>
<feBlend mode="normal" in="SourceGraphic" in2="effect1_backgroundBlur_5_8105" result="shape"/>
</filter>
</defs>
</svg>
