<svg width="16" height="16" viewBox="0 0 16 16" fill="none" xmlns="http://www.w3.org/2000/svg">
<path fill-rule="evenodd" clip-rule="evenodd" d="M12.5 2.5H3.5C2.94772 2.5 2.5 2.94772 2.5 3.5V12.5C2.5 13.0523 2.94772 13.5 3.5 13.5H12.5C13.0523 13.5 13.5 13.0523 13.5 12.5V3.5C13.5 2.94772 13.0523 2.5 12.5 2.5ZM3.5 1.5C2.39543 1.5 1.5 2.39543 1.5 3.5V12.5C1.5 13.6046 2.39543 14.5 3.5 14.5H12.5C13.6046 14.5 14.5 13.6046 14.5 12.5V3.5C14.5 2.39543 13.6046 1.5 12.5 1.5H3.5ZM5.5 8C5.5 8.34518 5.22018 8.625 4.875 8.625C4.52982 8.625 4.25 8.34518 4.25 8C4.25 7.65482 4.52982 7.375 4.875 7.375C5.22018 7.375 5.5 7.65482 5.5 8ZM4.875 5.625C5.22018 5.625 5.5 5.34518 5.5 5C5.5 4.65482 5.22018 4.375 4.875 4.375C4.52982 4.375 4.25 4.65482 4.25 5C4.25 5.34518 4.52982 5.625 4.875 5.625ZM5.5 11C5.5 11.3452 5.22018 11.625 4.875 11.625C4.52982 11.625 4.25 11.3452 4.25 11C4.25 10.6548 4.52982 10.375 4.875 10.375C5.22018 10.375 5.5 10.6548 5.5 11ZM6.75 4.5C6.47386 4.5 6.25 4.72386 6.25 5C6.25 5.27614 6.47386 5.5 6.75 5.5H11.75C12.0261 5.5 12.25 5.27614 12.25 5C12.25 4.72386 12.0261 4.5 11.75 4.5H6.75ZM6.25 8C6.25 7.72386 6.47386 7.5 6.75 7.5H11.75C12.0261 7.5 12.25 7.72386 12.25 8C12.25 8.27614 12.0261 8.5 11.75 8.5H6.75C6.47386 8.5 6.25 8.27614 6.25 8ZM6.75 10.5C6.47386 10.5 6.25 10.7239 6.25 11C6.25 11.2761 6.47386 11.5 6.75 11.5H11.75C12.0261 11.5 12.25 11.2761 12.25 11C12.25 10.7239 12.0261 10.5 11.75 10.5H6.75Z" fill="#171717"/>
</svg>
