<svg width="16" height="16" viewBox="0 0 16 16" fill="none" xmlns="http://www.w3.org/2000/svg">
<path fill-rule="evenodd" clip-rule="evenodd" d="M3.5 2C2.11929 2 1 3.11929 1 4.5V5.48845C0.999827 5.49602 0.999828 5.50357 1 5.51111V11.5C1 12.8807 2.11929 14 3.5 14H12.5C13.8807 14 15 12.8807 15 11.5V5.51111C15.0002 5.50357 15.0002 5.49602 15 5.48845V4.5C15 3.11929 13.8807 2 12.5 2H3.5ZM14 5.16863V4.5C14 3.67157 13.3284 3 12.5 3H3.5C2.67157 3 2 3.67157 2 4.5V5.16863L7.80518 7.62467C7.92972 7.67736 8.07028 7.67736 8.19482 7.62467L14 5.16863ZM2 6.25445V11.5C2 12.3284 2.67157 13 3.5 13H12.5C13.3284 13 14 12.3284 14 11.5V6.25445L8.58446 8.54564C8.21085 8.7037 7.78915 8.7037 7.41554 8.54564L2 6.25445Z" fill="#171717"/>
</svg>
