<svg width="16" height="16" viewBox="0 0 16 16" fill="none" xmlns="http://www.w3.org/2000/svg">
<path fill-rule="evenodd" clip-rule="evenodd" d="M3.92578 1.81129C3.3735 1.81129 2.92578 2.259 2.92578 2.81129V13.1885C2.92578 13.7408 3.3735 14.1885 3.92578 14.1885H12.0734C12.6258 14.1885 13.0734 13.7408 13.0734 13.1886V13.1697V13.1508V13.132V13.1131V13.0942V13.0753V13.0564V13.0375V13.0185V12.9996V12.9807V12.9618V12.9429V12.924V12.9051V12.8862V12.8673V12.8483V12.8294V12.8105V12.7916V12.7727V12.7538V12.7348V12.7159V12.697V12.6781V12.6592V12.6402V12.6213V12.6024V12.5835V12.5646V12.5457V12.5268V12.5079V12.4889V12.47V12.4511V12.4322V12.4133V12.3944V12.3755V12.3566V12.3377V12.3188V12.2999V12.281V12.2621V12.2433V12.2244V12.2055V12.1866V12.1677V12.1489V12.13V12.1111V12.0923V12.0734V12.0546V12.0357V12.0169V11.998V11.9792V11.9603V11.9415V11.9227V11.9038V11.885V11.8662V11.8474V11.8286V11.8098V11.791V11.7722V11.7534V11.7346V11.7158V11.6971V11.6783V11.6595V11.6408V11.622V11.6033V11.5845V11.5658V11.5471V11.5284V11.5097V11.4909V11.4722V11.4536V11.4349V11.4162V11.3975V11.3788V11.3602V11.3415V11.3229V11.3042V11.2856V11.267V11.2484V11.2298V11.2112V11.1926V11.174V11.1554V11.1368V11.1183V11.0997V11.0812V11.0627V11.0441V11.0256V11.0071V10.9886V10.9701V10.9516V10.9332V10.9147V10.8963V10.8778V10.8594V10.841V10.8225V10.8041V10.7857V10.7674V10.749V10.7306V10.7123V10.6939V10.6756V10.6573V10.639V10.6207V10.6024V10.5841V10.5659V10.5476V10.5294V10.5111V10.4929V10.4747V10.4565V10.4383V10.4202V10.402V10.3839V10.3657V10.3476V10.3295V10.3114V10.2933V10.2753V10.2572V10.2392V10.2211V10.2031V10.1851V10.1671V10.1491V10.1312V10.1132V10.0953V10.0774V10.0595V10.0416V10.0237V10.0058V9.98796V9.97013V9.95231V9.9345V9.91671V9.89893V9.88117V9.86342V9.84569V9.82797V9.81027V9.79259V9.77492V9.75726V9.73962V9.722V9.7044V9.6868V9.66923V9.65167V9.63413V9.61661V9.5991V9.58161V9.56413V9.54667V9.52923V9.51181V9.4944V9.47701V9.45964V9.44228V9.42495V9.40763V9.39033V9.37304V9.35578V9.33853V9.3213V9.30409V9.2869V9.26972V9.25257V9.23543V9.21831V9.20121V9.18413V9.16707V9.15002V9.133V9.116V9.09901V9.08205V9.0651V9.04818V9.03127V9.01439V8.99752V8.98067V8.96385V8.94704V8.93026V8.91349V8.89675V8.88003V8.86333V8.84664V8.82998V8.81335V8.79673V8.78013V8.76356V8.747V8.73047V8.71396V8.69747V8.68101V8.66456V8.64814V8.63174V8.61536V8.599V8.58267V8.56636V8.55007V8.53381V8.51757V8.50135V8.48515V8.46898V8.45283V8.4367V8.4206V8.40452V8.38846V8.37243V8.35642V8.34044V8.32448V8.30854V8.29263V8.27675V8.26088V8.24504V8.22923V8.21344V8.19768V8.18194V8.16623V8.15054V8.13487V8.11923V8.10362V8.08803V8.07247V8.05694V8.04143V8.02594V8.01048V7.99505V7.97965V7.96427V7.94891V7.93359V7.91829V7.90301V7.88777V7.87255V7.85736V7.84219V7.82705V7.81194V7.79686V7.7818V7.76677V7.75177V7.7368V7.72185V7.70694V7.69205V7.67719V7.66235V7.64755V7.63278V7.61803V7.60331V7.58862V7.57396V7.55933V7.54472V7.53015V7.51561V7.50109V7.48661V7.47215V7.45772V7.44333V7.42896V7.41462V7.40032V7.38604V7.3718V7.35758V7.34339V7.32924V7.31511V7.30102V7.28696V7.27293V7.25893V7.24496V7.23102V7.21711V7.20324V7.18939V7.17558V7.1618V7.14805V7.13433V7.12065V7.10699V7.09337V7.07979V7.06623V7.05271V7.03922V7.02576V7.01233V6.99894V6.98558V6.97225V6.95896V6.9457V6.93248V6.91928V6.90612V6.893V6.87991V6.86685V6.85382V6.84083V6.82788V6.81496V6.80207V6.78922V6.7764V6.76362V6.75087V6.73815V6.72547V6.71283V6.70022V6.68765V6.67511V6.66261V6.65014V6.63771V6.62531V6.61296V6.60063V6.58834V6.57609V6.56388V6.5517V6.53956V6.52745V6.51538V6.50335V6.49135V6.47939V6.46747V6.45559V6.44374V6.43193V6.42016V6.40842V6.39672V6.38506V6.37344V6.36186V6.35031V6.3388V6.32733V6.3159V6.30451V6.29315V6.28184V6.27056V6.25932V6.24812V6.23696V6.22584V6.21476V6.20371V6.19271V6.18175V6.17082V6.15994V6.14909V6.13829V6.12752V6.1168V6.10611V6.09547V6.08486V6.0743V6.06377V6.05329V6.04285V6.03245V6.02209V6.01177V6.00149V5.99125V5.98106V5.97091V5.96079V5.95072V5.94069V5.93071V5.92076V5.91086V5.901V5.89118V5.8814V5.87167V5.86198V5.85233V5.84272V5.83316V5.82364V5.81416V5.80473V5.79533V5.78599V5.77668V5.76742V5.7582V5.74903V5.7399V5.73082V5.72177V5.71278V5.70382V5.69491V5.68605V5.67723V5.66845V5.65972V5.65104V5.64239V5.6338V5.62525V5.61674V5.60828V5.59986V5.59149V5.58317V5.57489V5.56666V5.55847V5.55033V5.54223V5.53419V5.52618V5.51823V5.51032V5.50245V5.49464V5.48687V5.47915V5.47147V5.46384V5.45626V5.44872V5.44124V5.4338V5.4264V5.41906V5.41176V5.40604H10.7089C10.1566 5.40604 9.70893 4.95832 9.70893 4.40604V2.31129C9.70893 2.03515 9.48507 1.81129 9.20893 1.81129H6.09456H3.92578ZM6.09456 0.811289H3.92578C2.82121 0.811289 1.92578 1.70672 1.92578 2.81129V13.1885C1.92578 14.293 2.82121 15.1885 3.92578 15.1885H12.0734C13.1779 15.1885 14.0734 14.2933 14.0734 13.1886V13.1697V13.1508V13.132V13.1131V13.0942V13.0753V13.0564V13.0375V13.0185V12.9996V12.9807V12.9618V12.9429V12.924V12.9051V12.8862V12.8673V12.8483V12.8294V12.8105V12.7916V12.7727V12.7538V12.7348V12.7159V12.697V12.6781V12.6592V12.6402V12.6213V12.6024V12.5835V12.5646V12.5457V12.5268V12.5079V12.4889V12.47V12.4511V12.4322V12.4133V12.3944V12.3755V12.3566V12.3377V12.3188V12.2999V12.281V12.2621V12.2433V12.2244V12.2055V12.1866V12.1677V12.1489V12.13V12.1111V12.0923V12.0734V12.0546V12.0357V12.0169V11.998V11.9792V11.9603V11.9415V11.9227V11.9038V11.885V11.8662V11.8474V11.8286V11.8098V11.791V11.7722V11.7534V11.7346V11.7158V11.6971V11.6783V11.6595V11.6408V11.622V11.6033V11.5845V11.5658V11.5471V11.5284V11.5097V11.4909V11.4722V11.4536V11.4349V11.4162V11.3975V11.3788V11.3602V11.3415V11.3229V11.3042V11.2856V11.267V11.2484V11.2298V11.2112V11.1926V11.174V11.1554V11.1368V11.1183V11.0997V11.0812V11.0627V11.0441V11.0256V11.0071V10.9886V10.9701V10.9516V10.9332V10.9147V10.8963V10.8778V10.8594V10.841V10.8225V10.8041V10.7857V10.7674V10.749V10.7306V10.7123V10.6939V10.6756V10.6573V10.639V10.6207V10.6024V10.5841V10.5659V10.5476V10.5294V10.5111V10.4929V10.4747V10.4565V10.4383V10.4202V10.402V10.3839V10.3657V10.3476V10.3295V10.3114V10.2933V10.2753V10.2572V10.2392V10.2211V10.2031V10.1851V10.1671V10.1491V10.1312V10.1132V10.0953V10.0774V10.0595V10.0416V10.0237V10.0058V9.98796V9.97013V9.95231V9.9345V9.91671V9.89893V9.88117V9.86342V9.84569V9.82797V9.81027V9.79259V9.77492V9.75726V9.73962V9.722V9.7044V9.6868V9.66923V9.65167V9.63413V9.61661V9.5991V9.58161V9.56413V9.54667V9.52923V9.51181V9.4944V9.47701V9.45964V9.44228V9.42495V9.40763V9.39033V9.37304V9.35578V9.33853V9.3213V9.30409V9.2869V9.26972V9.25257V9.23543V9.21831V9.20121V9.18413V9.16707V9.15002V9.133V9.116V9.09901V9.08205V9.0651V9.04818V9.03127V9.01439V8.99752V8.98067V8.96385V8.94704V8.93026V8.91349V8.89675V8.88003V8.86333V8.84664V8.82998V8.81335V8.79673V8.78013V8.76356V8.747V8.73594H14.0735V5.29198C14.0735 4.91108 13.9286 4.54445 13.6682 4.26647L10.8759 1.28578C10.5923 0.983061 10.196 0.811289 9.78119 0.811289H9.20893H6.09456ZM10.7089 2.57026L12.4287 4.40604H10.7089V2.57026ZM4.99951 10.5786C4.72337 10.5786 4.49951 10.8025 4.49951 11.0786C4.49951 11.3548 4.72337 11.5786 4.99951 11.5786H10.9995C11.2757 11.5786 11.4995 11.3548 11.4995 11.0786C11.4995 10.8025 11.2757 10.5786 10.9995 10.5786H4.99951ZM4.99944 8.07861C4.7233 8.07861 4.49944 8.30247 4.49944 8.57861C4.49944 8.85476 4.7233 9.07861 4.99944 9.07861H7.99944C8.27558 9.07861 8.49944 8.85476 8.49944 8.57861C8.49944 8.30247 8.27558 8.07861 7.99944 8.07861H4.99944Z" fill="#171717"/>
</svg>
