<svg width="14" height="14" viewBox="0 0 14 14" fill="none" xmlns="http://www.w3.org/2000/svg">
<path fill-rule="evenodd" clip-rule="evenodd" d="M5.74818 1.80526C5.77868 1.53081 5.58091 1.2836 5.30646 1.2531C5.032 1.22261 4.78479 1.42037 4.7543 1.69483L4.47959 4.16717H1.75C1.47386 4.16717 1.25 4.39103 1.25 4.66717C1.25 4.94331 1.47386 5.16717 1.75 5.16717H4.36848L3.96091 8.83532H1.75C1.47386 8.83532 1.25 9.05918 1.25 9.33532C1.25 9.61147 1.47386 9.83532 1.75 9.83532H3.8498L3.58735 12.1974C3.55685 12.4718 3.75462 12.719 4.02907 12.7495C4.30353 12.78 4.55074 12.5823 4.58123 12.3078L4.85595 9.83532H8.51798L8.25555 12.1972C8.22505 12.4716 8.42282 12.7189 8.69727 12.7493C8.97173 12.7798 9.21894 12.5821 9.24943 12.3076L9.52413 9.83532H12.2525C12.5287 9.83532 12.7525 9.61147 12.7525 9.33532C12.7525 9.05918 12.5287 8.83532 12.2525 8.83532H9.63524L9.83291 7.05635C9.8634 6.78189 9.66563 6.53468 9.39118 6.50419C9.11673 6.47369 8.86952 6.67146 8.83902 6.94592L8.62909 8.83532H4.96706L5.37464 5.16717H9.62947C9.64077 5.16755 9.65201 5.16754 9.66317 5.16717H12.2525C12.5287 5.16717 12.7525 4.94331 12.7525 4.66717C12.7525 4.39103 12.5287 4.16717 12.2525 4.16717H10.1946L10.4161 1.79655C10.4418 1.5216 10.2397 1.27789 9.96475 1.25221C9.68981 1.22653 9.4461 1.4286 9.42042 1.70354L9.1903 4.16717H5.48575L5.74818 1.80526Z" fill="#7C7C7C"/>
</svg>
