<svg width="18" height="18" viewBox="0 0 18 18" fill="none" xmlns="http://www.w3.org/2000/svg">
<g clip-path="url(#clip0_1411_42130)">
<path fill-rule="evenodd" clip-rule="evenodd" d="M1.39062 2.72116C1.11448 2.72116 0.890625 2.94502 0.890625 3.22116V14.6354C0.890625 14.9115 1.11448 15.1354 1.39062 15.1354L5.1947 15.1354L5.19485 15.1354H5.19492H5.19512H5.19536L5.1976 15.1354L5.21254 15.1356C5.22662 15.1358 5.24877 15.1364 5.27825 15.1375C5.33725 15.1397 5.42537 15.1442 5.53671 15.1535C5.75986 15.172 6.07355 15.2091 6.43112 15.2834C7.15464 15.4338 8.0129 15.7271 8.67577 16.2842C8.76308 16.3586 8.87634 16.4036 9.00009 16.4036C9.12386 16.4036 9.23713 16.3586 9.32444 16.2841C9.98731 15.7271 10.8456 15.4338 11.5691 15.2834C11.9266 15.2091 12.2403 15.172 12.4635 15.1535C12.5748 15.1442 12.6629 15.1397 12.7219 15.1375C12.7514 15.1364 12.7736 15.1358 12.7876 15.1356L12.8026 15.1354L12.8048 15.1354H12.8051H12.8053H12.8053L12.8055 15.1354L16.6096 15.1354C16.8857 15.1354 17.1096 14.9115 17.1096 14.6354V3.22116C17.1096 2.94502 16.8857 2.72116 16.6096 2.72116H12.8048V3.22116C12.8048 2.72116 12.8047 2.72116 12.8045 2.72116L12.8042 2.72116L12.8033 2.72116L12.801 2.72117L12.7938 2.72122L12.7696 2.72155C12.7493 2.72192 12.7206 2.72262 12.6843 2.72399C12.6117 2.72672 12.5085 2.7321 12.3809 2.74269C12.126 2.76382 11.7709 2.80592 11.3656 2.89015C10.6636 3.03604 9.77616 3.3153 9.00009 3.85951C8.22403 3.3153 7.33663 3.03604 6.63458 2.89015C6.22926 2.80592 5.87421 2.76382 5.61933 2.74269C5.49165 2.7321 5.38845 2.72672 5.31587 2.72399C5.27956 2.72262 5.25086 2.72192 5.23054 2.72155L5.2064 2.72122L5.19921 2.72117L5.19686 2.72116L5.196 2.72116L5.19566 2.72116C5.1955 2.72116 5.19536 2.72116 5.19536 3.22116V2.72116H1.39062ZM9.50009 14.9652C10.1401 14.6183 10.8107 14.4197 11.3656 14.3044C11.7709 14.2201 12.126 14.178 12.3809 14.1569C12.5085 14.1463 12.6117 14.1409 12.6843 14.1382C12.7206 14.1368 12.7493 14.1361 12.7696 14.1358L12.7938 14.1354L12.801 14.1354L12.8033 14.1354L12.8042 14.1354H12.8045C12.8047 14.1354 12.8048 14.1354 12.8048 14.6354V14.1354H16.1096V3.72116H12.8054L12.8053 3.72116L12.8026 3.72118L12.7876 3.72139C12.7736 3.72164 12.7514 3.72217 12.7219 3.72328C12.6629 3.72551 12.5748 3.73004 12.4635 3.73927C12.2403 3.75777 11.9266 3.79493 11.5691 3.86923C10.908 4.00661 10.1343 4.26333 9.50009 4.73162V14.9652ZM8.50009 4.73162C7.86584 4.26333 7.09223 4.00661 6.43112 3.86923C6.07355 3.79493 5.75986 3.75777 5.53671 3.73927C5.42537 3.73004 5.33725 3.72551 5.27825 3.72328C5.24877 3.72217 5.22662 3.72164 5.21254 3.72139L5.1976 3.72118L5.19512 3.72116L5.19485 3.72116L5.19483 3.72116H1.89062V14.1354H5.19536V14.6354C5.19536 14.1354 5.1955 14.1354 5.19566 14.1354H5.196L5.19686 14.1354L5.19921 14.1354L5.2064 14.1354L5.23054 14.1358C5.25086 14.1361 5.27956 14.1368 5.31587 14.1382C5.38845 14.1409 5.49165 14.1463 5.61933 14.1569C5.87421 14.178 6.22926 14.2201 6.63458 14.3044C7.18946 14.4197 7.86013 14.6183 8.50009 14.9652V4.73162Z" fill="#525252"/>
</g>
<defs>
<clipPath id="clip0_1411_42130">
<rect width="18" height="18" fill="white"/>
</clipPath>
</defs>
</svg>
