<svg width="16" height="17" viewBox="0 0 16 17" fill="none" xmlns="http://www.w3.org/2000/svg">
<path fill-rule="evenodd" clip-rule="evenodd" d="M7.50098 3.31131C6.95054 3.02596 6.38172 2.85973 5.90892 2.76148C5.54599 2.68606 5.22809 2.64836 4.99977 2.62943C4.88537 2.61995 4.7928 2.61512 4.72753 2.61266C4.69487 2.61143 4.669 2.6108 4.65058 2.61046L4.62862 2.61016L4.62198 2.61012L4.61977 2.61011H4.61831H2.23633C1.4079 2.61011 0.736328 3.28168 0.736328 4.11011V13.2561C0.736328 13.5322 0.960186 13.7561 1.23633 13.7561H4.61831L4.61981 13.7561L4.63259 13.7563C4.64475 13.7565 4.66408 13.7569 4.6899 13.7579C4.74159 13.7599 4.81909 13.7638 4.91714 13.772C5.11374 13.7883 5.39028 13.821 5.70547 13.8865C6.28164 14.0063 6.95042 14.2279 7.50103 14.6274L7.50098 3.31131ZM8.50103 14.6263C9.05136 14.2275 9.71948 14.0061 10.2951 13.8865C10.6103 13.821 10.8869 13.7883 11.0835 13.772C11.1815 13.7638 11.259 13.7599 11.3107 13.7579C11.3365 13.7569 11.3558 13.7565 11.368 13.7563L11.3808 13.7561L11.383 13.7561H14.7643C15.0404 13.7561 15.2643 13.5322 15.2643 13.2561V4.11011C15.2643 3.28168 14.5927 2.61011 13.7643 2.61011H11.3823H11.3808L11.3786 2.61012L11.372 2.61016L11.35 2.61046C11.3316 2.6108 11.3057 2.61143 11.2731 2.61266C11.2078 2.61512 11.1152 2.61995 11.0008 2.62943C10.7725 2.64836 10.4546 2.68606 10.0917 2.76148C9.61927 2.85965 9.05099 3.02569 8.50098 3.31061L8.50103 14.6263Z" fill="#171717"/>
</svg>
