<svg width="16" height="16" viewBox="0 0 16 16" fill="none" xmlns="http://www.w3.org/2000/svg">
<path fill-rule="evenodd" clip-rule="evenodd" d="M4.15969 11.0123L4.17279 11.0253C4.17276 11.0253 4.17484 11.0272 4.17897 11.031C4.21695 11.0655 4.42864 11.2579 4.77688 11.5727C5.14213 11.9029 5.62149 12.3355 6.10132 12.7685C6.16929 12.8299 6.23758 12.8915 6.30581 12.9531C7.02952 13.6061 7.74656 14.2532 8.00622 14.4912C8.15155 14.3604 8.43754 14.1068 8.78577 13.7981C9.13708 13.4865 9.55174 13.1189 9.94918 12.7645C10.4342 12.3321 10.9128 11.9027 11.2691 11.5768C11.3745 11.4803 11.4673 11.3947 11.5452 11.3218V11.2964L11.8648 10.9997C12.95 9.99193 13.5109 8.58334 13.5109 7.05226V7.03944L13.5112 7.02663C13.5901 3.95314 11.1555 1.5 8.05226 1.5C4.954 1.5 2.5 3.954 2.5 7.05226C2.5 8.58334 3.06088 9.99193 4.14613 10.9997L4.15969 11.0123ZM7.90678 14.5823C7.91104 14.578 7.91527 14.574 7.91946 14.5701C7.91386 14.5754 7.90961 14.5795 7.90678 14.5823ZM7.39704 15.2894C7.35023 15.2426 6.39086 14.3768 5.43146 13.511C4.47199 12.6451 3.51248 11.7793 3.46568 11.7324C2.15523 10.5156 1.5 8.83073 1.5 7.05226C1.5 3.40172 4.40172 0.5 8.05226 0.5C11.7028 0.5 14.6045 3.40172 14.5109 7.05226C14.5109 8.83073 13.8557 10.5156 12.5452 11.7324C12.5452 11.8024 10.399 13.7046 9.27744 14.6986C8.89921 15.0338 8.63749 15.2658 8.61388 15.2894C8.33307 15.5702 7.77145 15.5702 7.39704 15.2894ZM8.05226 9.92434C6.47034 9.92434 5.18019 8.63419 5.18019 7.05226C5.18019 5.47034 6.47034 4.18019 8.05226 4.18019C9.63419 4.18019 10.9243 5.47034 10.9243 7.05226C10.9243 8.63419 9.63419 9.92434 8.05226 9.92434ZM6.18019 7.05226C6.18019 8.0819 7.02262 8.92434 8.05226 8.92434C9.0819 8.92434 9.92434 8.0819 9.92434 7.05226C9.92434 6.02262 9.0819 5.18019 8.05226 5.18019C7.02262 5.18019 6.18019 6.02262 6.18019 7.05226Z" fill="#171717"/>
</svg>
