<svg width="14" height="14" viewBox="0 0 14 14" fill="none" xmlns="http://www.w3.org/2000/svg">
<path fill-rule="evenodd" clip-rule="evenodd" d="M3.31263 1.6875C1.93192 1.6875 0.812629 2.80679 0.812629 4.1875V4.80095C0.812457 4.80852 0.812457 4.81607 0.812629 4.82361V9.8125C0.812629 11.1932 1.93192 12.3125 3.31263 12.3125H10.6876C12.0683 12.3125 13.1876 11.1932 13.1876 9.8125V4.82361C13.1878 4.81607 13.1878 4.80852 13.1876 4.80095V4.1875C13.1876 2.80679 12.0683 1.6875 10.6876 1.6875H3.31263ZM12.1876 4.48113V4.1875C12.1876 3.35907 11.5161 2.6875 10.6876 2.6875H3.31263C2.4842 2.6875 1.81263 3.35907 1.81263 4.1875V4.48113L6.80531 6.59342C6.92985 6.64611 7.07041 6.64611 7.19495 6.59342L12.1876 4.48113ZM1.81263 5.56695V9.8125C1.81263 10.6409 2.4842 11.3125 3.31263 11.3125H10.6876C11.5161 11.3125 12.1876 10.6409 12.1876 9.8125V5.56695L7.58459 7.51439C7.21098 7.67245 6.78928 7.67245 6.41567 7.51439L1.81263 5.56695Z" fill="#7C7C7C"/>
</svg>
