<svg width="16" height="16" viewBox="0 0 16 16" fill="none" xmlns="http://www.w3.org/2000/svg">
<path fill-rule="evenodd" clip-rule="evenodd" d="M3.92578 1.81129C3.3735 1.81129 2.92578 2.259 2.92578 2.81129V13.1885C2.92578 13.7408 3.3735 14.1885 3.92578 14.1885H12.0734C12.6258 14.1885 13.0734 13.7408 13.0734 13.1886V13.1697V13.1508V13.132V13.1131V13.0942V13.0753V13.0564V13.0375V13.0185V12.9996V12.9807V12.9618V12.9429V12.924V12.9051V12.8862V12.8673V12.8483V12.8294V12.8105V12.7916V12.7727V12.7538V12.7348V12.7159V12.697V12.6781V12.6592V12.6402V12.6213V12.6024V12.5835V12.5646V12.5457V12.5268V12.5079V12.4889V12.47V12.4511V12.4322V12.4133V12.3944V12.3755V12.3566V12.3377V12.3188V12.2999V12.281V12.2621V12.2433V12.2244V12.2055V12.1866V12.1677V12.1489V12.13V12.1111V12.0923V12.0734V12.0546V12.0357V12.0169V11.998V11.9792V11.9603V11.9415V11.9227V11.9038V11.885V11.8662V11.8474V11.8286V11.8098V11.791V11.7722V11.7534V11.7346V11.7158V11.6971V11.6783V11.6595V11.6408V11.622V11.6033V11.5845V11.5658V11.5471V11.5284V11.5097V11.4909V11.4722V11.4536V11.4349V11.4162V11.3975V11.3788V11.3602V11.3415V11.3229V11.3042V11.2856V11.267V11.2484V11.2298V11.2112V11.1926V11.174V11.1554V11.1368V11.1183V11.0997V11.0812V11.0627V11.0441V11.0256V11.0071V10.9886V10.9701V10.9516V10.9332V10.9147V10.8963V10.8778V10.8594V10.841V10.8225V10.8041V10.7857V10.7674V10.749V10.7306V10.7123V10.6939V10.6756V10.6573V10.639V10.6207V10.6024V10.5841V10.5659V10.5476V10.5294V10.5111V10.4929V10.4747V10.4565V10.4383V10.4202V10.402V10.3839V10.3657V10.3476V10.3295V10.3114V10.2933V10.2753V10.2572V10.2392V10.2211V10.2031V10.1851V10.1671V10.1491V10.1312V10.1132V10.0953V10.0774V10.0595V10.0416V10.0237V10.0058V9.98796V9.97013V9.95231V9.9345V9.91671V9.89893V9.88117V9.86342V9.84569V9.82797V9.81027V9.79259V9.77492V9.75726V9.73962V9.722V9.7044V9.6868V9.66923V9.65167V9.63413V9.61661V9.5991V9.58161V9.56413V9.54667V9.52923V9.51181V9.4944V9.47701V9.45964V9.44228V9.42495V9.40763V9.39033V9.37304V9.35578V9.33853V9.3213V9.30409V9.2869V9.26972V9.25257V9.23543V9.21831V9.20121V9.18413V9.16707V9.15002V9.133V9.116V9.09901V9.08205V9.0651V9.04818V9.03127V9.01439V8.99752V8.98067V8.96385V8.94704V8.93026V8.91349V8.89675V8.88003V8.86333V8.84664V8.82998V8.81335V8.79673V8.78013V8.76356V8.747V8.73047V8.71396V8.69747V8.68101V8.66456V8.64814V8.63174V8.61536V8.599V8.58267V8.56636V8.55007V8.53381V8.51757V8.50135V8.48515V8.46898V8.45283V8.4367V8.4206V8.40452V8.38846V8.37243V8.35642V8.34044V8.32448V8.30854V8.29263V8.27675V8.26088V8.24504V8.22923V8.21344V8.19768V8.18194V8.16623V8.15054V8.13487V8.11923V8.10362V8.08803V8.07247V8.05694V8.04143V8.02594V8.01048V7.99505V7.97965V7.96427V7.94891V7.93359V7.91829V7.90301V7.88777V7.87255V7.85736V7.84219V7.82705V7.81194V7.79686V7.7818V7.76677V7.75177V7.7368V7.72185V7.70694V7.69205V7.67719V7.66235V7.64755V7.63278V7.61803V7.60331V7.58862V7.57396V7.55933V7.54472V7.53015V7.51561V7.50109V7.48661V7.47215V7.45772V7.44333V7.42896V7.41462V7.40032V7.38604V7.3718V7.35758V7.34339V7.32924V7.31511V7.30102V7.28696V7.27293V7.25893V7.24496V7.23102V7.21711V7.20324V7.18939V7.17558V7.1618V7.14805V7.13433V7.12065V7.10699V7.09337V7.07979V7.06623V7.05271V7.03922V7.02576V7.01233V6.99894V6.98558V6.97225V6.95896V6.9457V6.93248V6.91928V6.90612V6.893V6.87991V6.86685V6.85382V6.84083V6.82788V6.81496V6.80207V6.78922V6.7764V6.76362V6.75087V6.73815V6.72547V6.71283V6.70022V6.68765V6.67511V6.66261V6.65014V6.63771V6.62531V6.61296V6.60063V6.58834V6.57609V6.56388V6.5517V6.53956V6.52745V6.51538V6.50335V6.49135V6.47939V6.46747V6.45559V6.44374V6.43193V6.42016V6.40842V6.39672V6.38506V6.37344V6.36186V6.35031V6.3388V6.32733V6.3159V6.30451V6.29315V6.28184V6.27056V6.25932V6.24812V6.23696V6.22584V6.21476V6.20371V6.19271V6.18175V6.17082V6.15994V6.14909V6.13829V6.12752V6.1168V6.10611V6.09547V6.08486V6.0743V6.06377V6.05329V6.04285V6.03245V6.02209V6.01177V6.00149V5.99125V5.98106V5.97091V5.96079V5.95072V5.94069V5.93071V5.92076V5.91086V5.901V5.89118V5.8814V5.87167V5.86198V5.85233V5.84272V5.83316V5.82364V5.81416V5.80473V5.79533V5.78599V5.77668V5.76742V5.7582V5.74903V5.7399V5.73082V5.72177V5.71278V5.70382V5.69491V5.68605V5.67723V5.66845V5.65972V5.65104V5.64239V5.6338V5.62525V5.61674V5.60828V5.59986V5.59149V5.58317V5.57489V5.56666V5.55847V5.55033V5.54223V5.53419V5.52618V5.51823V5.51032V5.50245V5.49464V5.48687V5.47915V5.47147V5.46384V5.45626V5.44872V5.44124V5.4338V5.4264V5.41906V5.41176V5.40604H10.7089C10.1566 5.40604 9.70893 4.95832 9.70893 4.40604V2.31129C9.70893 2.03515 9.48507 1.81129 9.20893 1.81129H6.09456H3.92578ZM6.09456 0.811289H9.20893H9.78119C10.196 0.811289 10.5923 0.983061 10.8759 1.28578L13.6682 4.26647C13.9286 4.54445 14.0735 4.91108 14.0735 5.29198V8.73594H14.0734V8.747V8.76356V8.78013V8.79673V8.81335V8.82998V8.84664V8.86333V8.88003V8.89675V8.91349V8.93026V8.94704V8.96385V8.98067V8.99752V9.01439V9.03127V9.04818V9.0651V9.08205V9.09901V9.116V9.133V9.15002V9.16707V9.18413V9.20121V9.21831V9.23543V9.25257V9.26972V9.2869V9.30409V9.3213V9.33853V9.35578V9.37304V9.39033V9.40763V9.42495V9.44228V9.45964V9.47701V9.4944V9.51181V9.52923V9.54667V9.56413V9.58161V9.5991V9.61661V9.63413V9.65167V9.66923V9.6868V9.7044V9.722V9.73962V9.75726V9.77492V9.79259V9.81027V9.82797V9.84569V9.86342V9.88117V9.89893V9.91671V9.9345V9.95231V9.97013V9.98796V10.0058V10.0237V10.0416V10.0595V10.0774V10.0953V10.1132V10.1312V10.1491V10.1671V10.1851V10.2031V10.2211V10.2392V10.2572V10.2753V10.2933V10.3114V10.3295V10.3476V10.3657V10.3839V10.402V10.4202V10.4383V10.4565V10.4747V10.4929V10.5111V10.5294V10.5476V10.5659V10.5841V10.6024V10.6207V10.639V10.6573V10.6756V10.6939V10.7123V10.7306V10.749V10.7674V10.7857V10.8041V10.8225V10.841V10.8594V10.8778V10.8963V10.9147V10.9332V10.9516V10.9701V10.9886V11.0071V11.0256V11.0441V11.0627V11.0812V11.0997V11.1183V11.1368V11.1554V11.174V11.1926V11.2112V11.2298V11.2484V11.267V11.2856V11.3042V11.3229V11.3415V11.3602V11.3788V11.3975V11.4162V11.4349V11.4536V11.4722V11.4909V11.5097V11.5284V11.5471V11.5658V11.5845V11.6033V11.622V11.6408V11.6595V11.6783V11.6971V11.7158V11.7346V11.7534V11.7722V11.791V11.8098V11.8286V11.8474V11.8662V11.885V11.9038V11.9227V11.9415V11.9603V11.9792V11.998V12.0169V12.0357V12.0546V12.0734V12.0923V12.1111V12.13V12.1489V12.1677V12.1866V12.2055V12.2244V12.2433V12.2621V12.281V12.2999V12.3188V12.3377V12.3566V12.3755V12.3944V12.4133V12.4322V12.4511V12.47V12.4889V12.5079V12.5268V12.5457V12.5646V12.5835V12.6024V12.6213V12.6402V12.6592V12.6781V12.697V12.7159V12.7348V12.7538V12.7727V12.7916V12.8105V12.8294V12.8483V12.8673V12.8862V12.9051V12.924V12.9429V12.9618V12.9807V12.9996V13.0185V13.0375V13.0564V13.0753V13.0942V13.1131V13.132V13.1508V13.1697V13.1886C14.0734 14.2933 13.1779 15.1885 12.0734 15.1885H3.92578C2.82121 15.1885 1.92578 14.293 1.92578 13.1885V2.81129C1.92578 1.70672 2.82121 0.811289 3.92578 0.811289H6.09456ZM10.7089 2.57026L12.4287 4.40604H10.7089V2.57026ZM3.71289 11.9877V8.69727H5.02024C5.29555 8.69727 5.52669 8.74217 5.71366 8.83198C5.90063 8.92178 6.04197 9.0506 6.13766 9.21844C6.23483 9.38627 6.28342 9.58797 6.28342 9.82353C6.28342 10.0532 6.2341 10.2505 6.13546 10.4154C6.03829 10.5788 5.89401 10.7047 5.70262 10.793C5.51123 10.8799 5.27567 10.9233 4.99594 10.9233H4.54102V11.9877H3.71289ZM4.54102 9.37965V10.2696H4.94736C5.06514 10.2696 5.16157 10.2527 5.23666 10.2188C5.31321 10.1835 5.36989 10.1327 5.4067 10.0664C5.4435 10.0002 5.46191 9.91922 5.46191 9.82353C5.46191 9.72636 5.4435 9.64539 5.4067 9.58061C5.36989 9.51436 5.31321 9.4643 5.23666 9.43044C5.16157 9.39658 5.06514 9.37965 4.94736 9.37965H4.54102ZM7.91972 11.9877H7.51338H7.03638H6.67862V8.69727H7.02092H7.51338H7.9153C8.25097 8.69727 8.54247 8.76499 8.78981 8.90043C9.03715 9.03441 9.22854 9.22433 9.36398 9.47019C9.49943 9.71605 9.56715 10.0068 9.56715 10.3425C9.56715 10.6782 9.50016 10.9689 9.36619 11.2148C9.23222 11.4607 9.04156 11.6513 8.79423 11.7868C8.54836 11.9207 8.25686 11.9877 7.91972 11.9877ZM7.51338 9.3929V11.2921H7.87997C8.07136 11.2921 8.22962 11.2575 8.35476 11.1883C8.4799 11.1191 8.57266 11.0146 8.63302 10.8747C8.69485 10.7334 8.72577 10.556 8.72577 10.3425C8.72577 10.129 8.69412 9.95235 8.63081 9.81248C8.56897 9.67115 8.47402 9.56589 8.34593 9.49669C8.21932 9.4275 8.05811 9.3929 7.8623 9.3929H7.51338ZM12.2878 8.69727H9.98003V11.9877H10.8148V10.7996H12.0846V10.1327H10.8148V9.39069H12.2878V8.69727Z" fill="#171717"/>
</svg>
