<svg width="16" height="17" viewBox="0 0 16 17" fill="none" xmlns="http://www.w3.org/2000/svg">
<path fill-rule="evenodd" clip-rule="evenodd" d="M6.58883 1.59557C6.69725 1.38347 6.91537 1.25 7.15358 1.25H8.84642C9.08463 1.25 9.30275 1.38347 9.41117 1.59556C9.83939 2.43327 10.8124 2.83628 11.7075 2.54671C11.9341 2.47339 12.1827 2.53325 12.3512 2.70169L13.5482 3.89871C13.7166 4.06715 13.7765 4.31575 13.7032 4.54239C13.4137 5.43759 13.8167 6.4106 14.6544 6.83883C14.8665 6.94725 15 7.16538 15 7.40358V9.09642C15 9.33463 14.8665 9.55275 14.6544 9.66117C13.8167 10.0894 13.4137 11.0624 13.7032 11.9576C13.7766 12.1842 13.7167 12.4328 13.5483 12.6012L12.9497 13.1997L12.9406 13.2087L12.3076 13.81C12.1391 13.9701 11.8962 14.0247 11.6754 13.9522C10.7992 13.6645 9.844 14.0577 9.42424 14.8789L9.41101 14.9047C9.30268 15.1167 9.08476 15.25 8.84677 15.25H7.15358C6.91537 15.25 6.69725 15.1165 6.58883 14.9044C6.16059 14.0667 5.18759 13.6637 4.29238 13.9532C4.06575 14.0265 3.81715 13.9666 3.64871 13.7982L2.45169 12.6012C2.28325 12.4327 2.22339 12.1841 2.29671 11.9575C2.58628 11.0624 2.18327 10.0894 1.34556 9.66117C1.13347 9.55275 1 9.33463 1 9.09642V7.40282C1 7.16335 1.13512 6.94641 1.34525 6.83899C2.17618 6.41424 2.57671 5.44267 2.28272 4.56262C2.20679 4.33532 2.26588 4.08462 2.43534 3.91516L3.64876 2.70174C3.8172 2.53331 4.06581 2.47345 4.29245 2.54676C5.18762 2.83632 6.1606 2.43329 6.58883 1.59557ZM8 10.5C9.24264 10.5 10.25 9.49264 10.25 8.25C10.25 7.00736 9.24264 6 8 6C6.75736 6 5.75 7.00736 5.75 8.25C5.75 9.49264 6.75736 10.5 8 10.5Z" fill="#171717"/>
</svg>
