<svg width="18" height="18" viewBox="0 0 18 18" fill="none" xmlns="http://www.w3.org/2000/svg">
<g clip-path="url(#clip0_1411_42141)">
<path fill-rule="evenodd" clip-rule="evenodd" d="M4.71094 3.65473C6.08439 3.99948 7.52574 3.40245 8.25315 2.1875H9H9.74685C10.4742 3.40242 11.9156 3.99945 13.289 3.65468L13.8172 4.18283L14.3452 4.71088C14.0005 6.08436 14.5975 7.52573 15.8125 8.25315V9V9.74685C14.5975 10.4743 14.0005 11.9156 14.3453 13.2891L13.8217 13.8126L13.2607 14.3455C11.8954 13.9965 10.4583 14.5946 9.74462 15.8125H9H8.25315C7.52573 14.5975 6.08436 14.0005 4.71088 14.3452L4.18283 13.8172L3.65468 13.289C3.99945 11.9156 3.40242 10.4742 2.1875 9.74685L2.1875 9L2.1875 8.25302C3.3927 7.5299 3.99101 6.0909 3.63857 4.7271L4.18283 4.18283L4.71094 3.65473ZM8.04777 1.1875C7.80327 1.1875 7.57938 1.3245 7.46809 1.54221C6.97236 2.51197 5.84603 2.97851 4.80977 2.64332C4.57713 2.56807 4.32194 2.62951 4.14905 2.8024L3.47573 3.47573L2.78396 4.1675C2.61006 4.34139 2.54942 4.59865 2.62734 4.8319C2.96798 5.85158 2.50387 6.9765 1.54186 7.46827C1.32616 7.57853 1.1875 7.8012 1.1875 8.04692L1.1875 9L1.1875 9.95223C1.1875 10.1967 1.3245 10.4206 1.54221 10.5319C2.51195 11.0276 2.97848 12.154 2.64327 13.1902C2.56801 13.4228 2.62945 13.678 2.80234 13.8509L3.47573 14.5243L4.14899 15.1975C4.32189 15.3704 4.57707 15.4319 4.8097 15.3566C5.84599 15.0215 6.97235 15.488 7.46808 16.4578C7.57938 16.6755 7.80327 16.8125 8.04778 16.8125H9H9.95262C10.1969 16.8125 10.4206 16.6756 10.5317 16.4581L10.5466 16.429C11.0329 15.4778 12.1393 15.0223 13.1543 15.3556C13.3809 15.43 13.6301 15.3739 13.803 15.2097L14.5151 14.5332L14.5152 14.5333L14.5243 14.5243L15.1976 13.8509C15.3705 13.6781 15.4319 13.4229 15.3567 13.1902C15.0215 12.154 15.488 11.0276 16.4578 10.5319C16.6755 10.4206 16.8125 10.1967 16.8125 9.95223V9V8.04778C16.8125 7.80327 16.6755 7.57938 16.4578 7.46809C15.488 6.97236 15.0215 5.84599 15.3566 4.8097C15.4319 4.57707 15.3704 4.32189 15.1975 4.14899L14.5243 3.47573L13.8509 2.80234C13.678 2.62945 13.4228 2.56801 13.1902 2.64327C12.154 2.97848 11.0276 2.51195 10.5319 1.54221C10.4206 1.3245 10.1967 1.1875 9.95223 1.1875H9H8.04777ZM6.6875 9C6.6875 7.72284 7.72284 6.6875 9 6.6875C10.2772 6.6875 11.3125 7.72284 11.3125 9C11.3125 10.2772 10.2772 11.3125 9 11.3125C7.72284 11.3125 6.6875 10.2772 6.6875 9ZM9 5.6875C7.17056 5.6875 5.6875 7.17056 5.6875 9C5.6875 10.8294 7.17056 12.3125 9 12.3125C10.8294 12.3125 12.3125 10.8294 12.3125 9C12.3125 7.17056 10.8294 5.6875 9 5.6875Z" fill="#525252"/>
</g>
<defs>
<clipPath id="clip0_1411_42141">
<rect width="18" height="18" fill="white"/>
</clipPath>
</defs>
</svg>
