<svg width="16" height="16" viewBox="0 0 16 16" fill="none" xmlns="http://www.w3.org/2000/svg">
<path fill-rule="evenodd" clip-rule="evenodd" d="M4.20465 3.31006C5.42974 3.60357 6.70871 3.0738 7.36743 2H8H8.63257C9.29128 3.07377 10.5702 3.60355 11.7953 3.31002L12.2426 3.75736L12.6899 4.20461C12.3964 5.4297 12.9262 6.7087 14 7.36743V8V8.63257C12.9262 9.29129 12.3964 10.5703 12.6899 11.7953L12.2472 12.2381L11.7712 12.6903C10.5529 12.3926 9.27724 12.9233 8.63025 14H8H7.36743C6.7087 12.9262 5.4297 12.3964 4.20461 12.6899L3.75736 12.2426L3.31002 11.7953C3.60355 10.5702 3.07378 9.29128 2 8.63257L2 8L2 7.36727C3.0651 6.71234 3.596 5.43568 3.29587 4.21885L3.75736 3.75736L4.20465 3.31006ZM7.15358 1C6.91537 1 6.69725 1.13347 6.58883 1.34557C6.1606 2.18329 5.18762 2.58632 4.29245 2.29676C4.06581 2.22345 3.8172 2.28331 3.64876 2.45174L3.05025 3.05025L2.43534 3.66516C2.26588 3.83462 2.20679 4.08532 2.28272 4.31262C2.57671 5.19267 2.17618 6.16424 1.34525 6.58899C1.13512 6.69641 1 6.91335 1 7.15282V8V8.84642C1 9.08463 1.13347 9.30275 1.34556 9.41117C2.18327 9.83939 2.58628 10.8124 2.29671 11.7075C2.22339 11.9341 2.28325 12.1827 2.45169 12.3512L3.05025 12.9497L3.64871 13.5482C3.81715 13.7166 4.06575 13.7765 4.29238 13.7032C5.18759 13.4137 6.16059 13.8167 6.58883 14.6544C6.69725 14.8665 6.91537 15 7.15358 15H8H8.84677C9.08476 15 9.30268 14.8667 9.41101 14.6547L9.42424 14.6289C9.844 13.8077 10.7992 13.4145 11.6754 13.7022C11.8962 13.7747 12.1391 13.7201 12.3076 13.56L12.9406 12.9587L12.9407 12.9588L12.9497 12.9497L13.5483 12.3512C13.7167 12.1828 13.7766 11.9342 13.7032 11.7076C13.4137 10.8124 13.8167 9.8394 14.6544 9.41117C14.8665 9.30275 15 9.08463 15 8.84642V8V7.15358C15 6.91538 14.8665 6.69725 14.6544 6.58883C13.8167 6.1606 13.4137 5.18759 13.7032 4.29239C13.7765 4.06575 13.7166 3.81715 13.5482 3.64871L12.9497 3.05025L12.3512 2.45169C12.1827 2.28325 11.9341 2.22339 11.7075 2.29671C10.8124 2.58628 9.83939 2.18327 9.41117 1.34556C9.30275 1.13347 9.08463 1 8.84642 1H8H7.15358ZM6 8C6 6.89543 6.89543 6 8 6C9.10457 6 10 6.89543 10 8C10 9.10457 9.10457 10 8 10C6.89543 10 6 9.10457 6 8ZM8 5C6.34315 5 5 6.34315 5 8C5 9.65685 6.34315 11 8 11C9.65685 11 11 9.65685 11 8C11 6.34315 9.65685 5 8 5Z" fill="#171717"/>
</svg>
