<svg width="16" height="16" viewBox="0 0 16 16" fill="none" xmlns="http://www.w3.org/2000/svg">
<path fill-rule="evenodd" clip-rule="evenodd" d="M5.50026 3.5C5.50026 3.22386 5.27641 3 5.00026 3C4.72412 3 4.50026 3.22386 4.50026 3.5V11.2929L2.87894 9.67157C2.68368 9.47631 2.3671 9.47631 2.17184 9.67157C1.97658 9.86684 1.97658 10.1834 2.17184 10.3787L4.64671 12.8536C4.69465 12.9015 4.7499 12.9377 4.80887 12.9621C4.86696 12.9861 4.93056 12.9996 4.99727 13C4.99826 13 4.99926 13 5.00026 13C5.00126 13 5.00226 13 5.00326 13C5.13022 12.9992 5.25695 12.9504 5.35382 12.8536L7.82869 10.3787C8.02395 10.1834 8.02395 9.86684 7.82869 9.67157C7.63343 9.47631 7.31685 9.47631 7.12158 9.67157L5.50026 11.2929V3.5ZM10.5003 12.5V4.70711L8.87894 6.32843C8.68368 6.52369 8.3671 6.52369 8.17184 6.32843C7.97657 6.13316 7.97657 5.81658 8.17184 5.62132L10.6467 3.14645C10.6946 3.09851 10.7499 3.06234 10.8089 3.03794C10.8678 3.01349 10.9325 3 11.0003 3C11.0681 3 11.1327 3.01349 11.1917 3.03794C11.2506 3.06234 11.3059 3.09851 11.3538 3.14645L13.8287 5.62132C14.024 5.81658 14.024 6.13316 13.8287 6.32843C13.6334 6.52369 13.3168 6.52369 13.1216 6.32843L11.5003 4.70711V12.5C11.5003 12.7761 11.2764 13 11.0003 13C10.7241 13 10.5003 12.7761 10.5003 12.5Z" fill="#383838"/>
</svg>
