<svg width="16" height="12" viewBox="0 0 16 12" fill="none" xmlns="http://www.w3.org/2000/svg">
<path fill-rule="evenodd" clip-rule="evenodd" d="M1.99805 2.12305C1.99805 1.8469 2.2219 1.62305 2.49805 1.62305H13.5028C13.7789 1.62305 14.0028 1.84691 14.0028 2.12305V3.53459C12.9902 3.91326 12.2688 4.88902 12.2688 6.03388C12.2688 7.17875 12.9902 8.15451 14.0028 8.53318V9.8766C14.0028 10.1527 13.7789 10.3766 13.5028 10.3766H2.49805C2.2219 10.3766 1.99805 10.1527 1.99805 9.8766V8.53318C3.01066 8.15451 3.73201 7.17875 3.73201 6.03388C3.73201 4.88816 3.01058 3.91306 1.99805 3.53456V2.12305ZM2.49805 0.623047C1.66962 0.623047 0.998047 1.29462 0.998047 2.12305V3.90978C0.998047 4.14752 1.16545 4.35238 1.39842 4.39975C2.15955 4.55451 2.73201 5.22751 2.73201 6.03388C2.73201 6.83951 2.15943 7.51328 1.39842 7.66802C1.16545 7.71539 0.998047 7.92025 0.998047 8.15799V9.8766C0.998047 10.705 1.66962 11.3766 2.49805 11.3766H13.5028C14.3312 11.3766 15.0028 10.705 15.0028 9.8766V8.15799C15.0028 7.92025 14.8354 7.71539 14.6024 7.66802C13.8414 7.51328 13.2688 6.83951 13.2688 6.03388C13.2688 5.22826 13.8414 4.55449 14.6024 4.39975C14.8354 4.35238 15.0028 4.14752 15.0028 3.90978V2.12305C15.0028 1.29462 14.3312 0.623047 13.5028 0.623047H2.49805ZM5.41014 4.60646C5.41014 4.33032 5.634 4.10646 5.91014 4.10646H10.0902C10.3664 4.10646 10.5902 4.33032 10.5902 4.60646C10.5902 4.8826 10.3664 5.10646 10.0902 5.10646H5.91014C5.634 5.10646 5.41014 4.8826 5.41014 4.60646ZM5.41014 7.39324C5.41014 7.1171 5.634 6.89324 5.91014 6.89324H10.0902C10.3664 6.89324 10.5902 7.1171 10.5902 7.39324C10.5902 7.66938 10.3664 7.89324 10.0902 7.89324H5.91014C5.634 7.89324 5.41014 7.66938 5.41014 7.39324Z" fill="#171717"/>
</svg>
