<svg width="16" height="16" viewBox="0 0 16 16" fill="none" xmlns="http://www.w3.org/2000/svg">
<path fill-rule="evenodd" clip-rule="evenodd" d="M1.99756 4.12305C1.99756 3.8469 2.22142 3.62305 2.49756 3.62305H13.5023C13.7784 3.62305 14.0023 3.84691 14.0023 4.12305V5.53459C12.9897 5.91326 12.2683 6.88902 12.2683 8.03388C12.2683 9.17875 12.9897 10.1545 14.0023 10.5332V11.8766C14.0023 12.1527 13.7784 12.3766 13.5023 12.3766H2.49756C2.22142 12.3766 1.99756 12.1527 1.99756 11.8766V10.5332C3.01017 10.1545 3.73152 9.17875 3.73152 8.03388C3.73152 6.88816 3.01009 5.91306 1.99756 5.53456V4.12305ZM2.49756 2.62305C1.66913 2.62305 0.997559 3.29462 0.997559 4.12305V5.90978C0.997559 6.14752 1.16496 6.35238 1.39793 6.39975C2.15906 6.55451 2.73152 7.22751 2.73152 8.03388C2.73152 8.83951 2.15894 9.51328 1.39793 9.66802C1.16496 9.71539 0.997559 9.92025 0.997559 10.158V11.8766C0.997559 12.705 1.66913 13.3766 2.49756 13.3766H13.5023C14.3307 13.3766 15.0023 12.705 15.0023 11.8766V10.158C15.0023 9.92025 14.8349 9.71539 14.6019 9.66802C13.8409 9.51328 13.2683 8.83951 13.2683 8.03388C13.2683 7.22826 13.8409 6.55449 14.6019 6.39975C14.8349 6.35238 15.0023 6.14752 15.0023 5.90978V4.12305C15.0023 3.29462 14.3307 2.62305 13.5023 2.62305H2.49756ZM5.40965 6.60646C5.40965 6.33032 5.63351 6.10646 5.90965 6.10646H10.0897C10.3659 6.10646 10.5897 6.33032 10.5897 6.60646C10.5897 6.8826 10.3659 7.10646 10.0897 7.10646H5.90965C5.63351 7.10646 5.40965 6.8826 5.40965 6.60646ZM5.40965 9.39324C5.40965 9.1171 5.63351 8.89324 5.90965 8.89324H10.0897C10.3659 8.89324 10.5897 9.1171 10.5897 9.39324C10.5897 9.66938 10.3659 9.89324 10.0897 9.89324H5.90965C5.63351 9.89324 5.40965 9.66938 5.40965 9.39324Z" fill="#171717"/>
</svg>
