<svg width="16" height="17" viewBox="0 0 16 17" fill="none" xmlns="http://www.w3.org/2000/svg">
<path fill-rule="evenodd" clip-rule="evenodd" d="M0.997559 4.37305C0.997559 3.54462 1.66913 2.87305 2.49756 2.87305H13.5023C14.3307 2.87305 15.0023 3.54462 15.0023 4.37305V6.15978C15.0023 6.39752 14.8349 6.60238 14.6019 6.64975C13.8409 6.80449 13.2683 7.47826 13.2683 8.28388C13.2683 9.08951 13.8409 9.76328 14.6019 9.91802C14.8349 9.96539 15.0023 10.1703 15.0023 10.408V12.1266C15.0023 12.955 14.3307 13.6266 13.5023 13.6266H2.49756C1.66913 13.6266 0.997559 12.955 0.997559 12.1266V10.408C0.997559 10.1703 1.16496 9.96539 1.39793 9.91802C2.15894 9.76328 2.73152 9.08951 2.73152 8.28388C2.73152 7.47751 2.15906 6.80451 1.39793 6.64975C1.16496 6.60238 0.997559 6.39752 0.997559 6.15978V4.37305ZM5.40967 6.85645C5.40967 6.5803 5.63353 6.35645 5.90967 6.35645H10.0898C10.3659 6.35645 10.5898 6.5803 10.5898 6.85645C10.5898 7.13259 10.3659 7.35645 10.0898 7.35645H5.90967C5.63353 7.35645 5.40967 7.13259 5.40967 6.85645ZM5.40967 9.64331C5.40967 9.36717 5.63353 9.14331 5.90967 9.14331H10.0898C10.3659 9.14331 10.5898 9.36717 10.5898 9.64331C10.5898 9.91945 10.3659 10.1433 10.0898 10.1433H5.90967C5.63353 10.1433 5.40967 9.91945 5.40967 9.64331Z" fill="#171717"/>
</svg>
