<svg width="1000" height="1000" viewBox="0 0 1000 1000" fill="none" xmlns="http://www.w3.org/2000/svg">
<path fill-rule="evenodd" clip-rule="evenodd" d="M65 241H408.967V331.989H65V241ZM65 758.336V473.136H386.158V564.278H174.79V758.336H65Z" fill="#2490EF"/>
<path d="M686.492 757.861H512.476V244.338H690.002C740.987 244.338 784.783 254.618 821.392 275.179C858.168 295.573 886.418 324.91 906.143 363.19C925.869 401.471 935.731 447.273 935.731 500.598C935.731 554.09 925.785 600.06 905.893 638.507C886.168 676.955 857.666 706.459 820.389 727.02C783.279 747.581 738.647 757.861 686.492 757.861ZM605.502 677.373H681.978C717.751 677.373 747.59 670.853 771.494 657.815C795.398 644.609 813.368 624.967 825.404 598.89C837.44 572.645 843.457 539.881 843.457 500.598C843.457 461.315 837.44 428.718 825.404 402.808C813.368 376.731 795.565 357.256 771.996 344.385C748.593 331.346 719.506 324.827 684.737 324.827H605.502V677.373Z" fill="#192734"/>
</svg>
