<svg width="16" height="16" viewBox="0 0 16 16" fill="none" xmlns="http://www.w3.org/2000/svg">
<path fill-rule="evenodd" clip-rule="evenodd" d="M14.6668 8.00001C14.6668 11.6819 11.6821 14.6667 8.00016 14.6667C4.31826 14.6667 1.3335 11.6819 1.3335 8.00001C1.3335 4.31811 4.31826 1.33334 8.00016 1.33334C11.6821 1.33334 14.6668 4.31811 14.6668 8.00001ZM11.4848 5.58164C11.0943 5.19112 10.4611 5.19112 10.0706 5.58164L9.51506 6.1372L8.40395 7.24831L6.88883 8.76342L6.48483 8.35942L5.92928 7.80386C5.53875 7.41334 4.90559 7.41334 4.51506 7.80386C4.12454 8.19439 4.12454 8.82755 4.51506 9.21808L5.07062 9.77363L6.18173 10.8847C6.36926 11.0723 6.62362 11.1776 6.88883 11.1776C7.15405 11.1776 7.4084 11.0723 7.59594 10.8847L9.81816 8.66252L10.9293 7.55141L11.4848 6.99585C11.8754 6.60533 11.8754 5.97217 11.4848 5.58164Z" fill="#2490EF"/>
</svg>
