<svg width="18" height="17" viewBox="0 0 18 17" fill="none" xmlns="http://www.w3.org/2000/svg">
<path d="M9 16.5C13.4183 16.5 17 12.9183 17 8.5C17 4.08172 13.4183 0.5 9 0.5C4.58172 0.5 1 4.08172 1 8.5C1 12.9183 4.58172 16.5 9 16.5Z" fill="#48BB74"/>
<path d="M5.6665 9.11357L7.6665 11.1136L12.3332 6.4469M17 8.5C17 12.9183 13.4183 16.5 9 16.5C4.58172 16.5 1 12.9183 1 8.5C1 4.08172 4.58172 0.5 9 0.5C13.4183 0.5 17 4.08172 17 8.5Z" stroke="white" stroke-miterlimit="10" stroke-linecap="round" stroke-linejoin="round"/>
</svg>
