<svg width="16" height="16" viewBox="0 0 16 16" fill="none" xmlns="http://www.w3.org/2000/svg">
<path d="M5.24127 2.66663H9.65506L11.701 2.66663C12.8056 2.66663 13.701 3.56206 13.701 4.66663V7.66075V8.94657C13.701 10.0511 12.8056 10.9466 11.701 10.9466H11.6263C11.3502 10.9466 11.1263 11.1704 11.1263 11.4466V12.2839C11.1263 12.7048 10.6382 12.9374 10.3114 12.6723L8.45917 11.1699C8.28102 11.0254 8.05861 10.9466 7.82923 10.9466H4.66654C3.56195 10.9466 2.66652 10.0511 2.66654 8.94654L2.66656 7.66075V4.66664C2.66656 3.56207 3.56199 2.66664 4.66656 2.66664L5.24127 2.66663Z" stroke="#38A160" stroke-miterlimit="10" stroke-linecap="square"/>
<path d="M5.24121 5.24133H10.3906" stroke="#38A160" stroke-miterlimit="10" stroke-linecap="round"/>
<path d="M5.24121 7.08044H8.18374" stroke="#38A160" stroke-miterlimit="10" stroke-linecap="round"/>
</svg>
