<svg width="11" height="8" viewBox="0 0 11 8" fill="none" xmlns="http://www.w3.org/2000/svg">
<path d="M10.9999 7.51503C10.9999 7.68835 10.9052 7.84845 10.7511 7.93505C10.5971 8.02165 10.4075 8.02165 10.2534 7.93505C10.0994 7.84845 10.0045 7.68834 10.0045 7.51503C10.003 6.35143 9.52785 5.23588 8.68346 4.41315C7.83907 3.59041 6.69417 3.12753 5.49998 3.12614H1.86175L3.44892 4.42778C3.55079 4.51038 3.61477 4.62913 3.62655 4.75773C3.63822 4.88644 3.59689 5.01429 3.51146 5.11312C3.42614 5.21184 3.30394 5.27344 3.17187 5.28405C3.03978 5.29477 2.90881 5.25363 2.80793 5.16984L0.177079 3.01171C0.0647672 2.91948 0 2.78373 0 2.64072C0 2.49761 0.0647644 2.36188 0.177079 2.26962L2.80782 0.111938L2.80793 0.112046C2.94402 0.00173586 3.13009 -0.0297653 3.29651 0.0293403C3.46282 0.088446 3.58446 0.229174 3.6158 0.399028C3.64724 0.568768 3.5837 0.742084 3.44894 0.854015L1.86235 2.15618H5.5C6.95808 2.1578 8.35587 2.72299 9.38707 3.72758C10.4181 4.73216 10.9982 6.0943 11 7.51507L10.9999 7.51503Z" fill="#74808B"/>
</svg>
