<svg width="26" height="22" viewBox="0 0 26 22" fill="none" xmlns="http://www.w3.org/2000/svg">
<path d="M20.9996 21H24.4438C24.9961 21 25.4438 20.5523 25.4438 20V16.1969C25.4436 15.9749 25.377 15.758 25.2524 15.5742C25.1279 15.3905 24.9511 15.2482 24.7449 15.1658L20.5874 13.4993C20.3815 13.417 20.205 13.2751 20.0805 13.0918C19.956 12.9085 19.8891 12.6921 19.8885 12.4704V11.4949C20.5624 11.1082 21.1225 10.5509 21.5126 9.87896C21.9027 9.20705 22.1089 8.44426 22.1106 7.66733V5.44522C22.1108 4.66501 21.9056 3.89851 21.5156 3.22276C21.1256 2.54701 20.5646 1.98584 19.8889 1.59566C19.2133 1.20548 18.4469 1.00004 17.6667 1C16.8864 0.999956 16.12 1.20531 15.4443 1.59541" stroke="#192734" stroke-miterlimit="10" stroke-linecap="round" stroke-linejoin="round"/>
<path d="M15.8559 16.2768L11.6984 14.6103C11.4925 14.528 11.316 14.3861 11.1915 14.2028C11.0669 14.0195 11.0001 13.8031 10.9995 13.5814V12.6059C11.6734 12.2192 12.2335 11.6619 12.6236 10.99C13.0137 10.318 13.2199 9.55526 13.2216 8.77833V6.55622C13.2216 5.37754 12.7534 4.24714 11.9199 3.41368C11.0865 2.58023 9.95607 2.112 8.77739 2.112C7.59871 2.112 6.4683 2.58023 5.63485 3.41368C4.8014 4.24714 4.33317 5.37754 4.33317 6.55622V8.77833C4.33486 9.55526 4.54113 10.318 4.9312 10.99C5.32128 11.6619 5.88142 12.2192 6.55528 12.6059V13.5814C6.55514 13.8034 6.48849 14.0203 6.36392 14.2041C6.23936 14.3879 6.06259 14.5301 5.85642 14.6125L1.69885 16.2791C1.49304 16.3613 1.31651 16.5032 1.19198 16.6865C1.06744 16.8699 1.00058 17.0863 1 17.3079V19.9999C1 20.5522 1.44772 20.9999 2 20.9999H15.5548C16.1071 20.9999 16.5548 20.5522 16.5548 19.9999V17.3079C16.5546 17.0859 16.488 16.869 16.3634 16.6852C16.2389 16.5015 16.0621 16.3592 15.8559 16.2768Z" stroke="#192734" stroke-miterlimit="10" stroke-linecap="round" stroke-linejoin="round"/>
</svg>
