<svg width="214" height="51" viewBox="0 0 214 51" fill="none" xmlns="http://www.w3.org/2000/svg">
<path fill-rule="evenodd" clip-rule="evenodd" d="M0 0.0498047H33.4319V8.89346H0V0.0498047ZM0 50.3323V22.6123H31.2149V31.4708H10.671V50.3323H0Z" fill="#2490EF"/>
<path d="M72.0683 50H55.3098V0.54541H72.4063C77.3164 0.54541 81.5342 1.53547 85.0598 3.51558C88.6014 5.4796 91.3221 8.30488 93.2217 11.9914C95.1213 15.678 96.0711 20.089 96.0711 25.2244C96.0711 30.3759 95.1133 34.803 93.1975 38.5056C91.2979 42.2083 88.5531 45.0497 84.9632 47.0298C81.3893 49.0099 77.091 50 72.0683 50ZM64.2686 42.2485H71.6336C75.0787 42.2485 77.9523 41.6207 80.2544 40.365C82.5564 39.0932 84.287 37.2017 85.4461 34.6903C86.6052 32.1628 87.1848 29.0075 87.1848 25.2244C87.1848 21.4412 86.6052 18.302 85.4461 15.8068C84.287 13.2954 82.5725 11.4199 80.3027 10.1804C78.0489 8.92467 75.2477 8.29683 71.8992 8.29683H64.2686V42.2485Z" fill="black"/>
<path d="M119.937 50.7244C116.219 50.7244 113.007 49.9517 110.302 48.4062C107.614 46.8447 105.545 44.6392 104.096 41.7897C102.648 38.9242 101.923 35.5516 101.923 31.6718C101.923 27.8565 102.648 24.508 104.096 21.6264C105.561 18.7286 107.606 16.4749 110.23 14.865C112.854 13.2391 115.937 12.4261 119.478 12.4261C121.764 12.4261 123.922 12.7964 125.95 13.5369C127.995 14.2613 129.798 15.3882 131.359 16.9176C132.937 18.4469 134.176 20.3948 135.078 22.7613C135.979 25.1117 136.43 27.9128 136.43 31.1647V33.8451H106.028V27.9531H128.051C128.035 26.2788 127.673 24.7897 126.964 23.4858C126.256 22.1657 125.266 21.1273 123.994 20.3707C122.738 19.6141 121.273 19.2358 119.599 19.2358C117.812 19.2358 116.243 19.6704 114.89 20.5397C113.538 21.393 112.484 22.5198 111.727 23.9204C110.987 25.3049 110.608 26.8262 110.592 28.4843V33.6278C110.592 35.785 110.987 37.6363 111.775 39.1818C112.564 40.7111 113.667 41.8863 115.084 42.7073C116.5 43.5123 118.158 43.9147 120.058 43.9147C121.33 43.9147 122.481 43.7376 123.511 43.3835C124.541 43.0132 125.435 42.4739 126.192 41.7656C126.948 41.0572 127.52 40.1799 127.906 39.1335L136.068 40.0511C135.553 42.2083 134.571 44.0918 133.122 45.7017C131.689 47.2954 129.854 48.535 127.616 49.4204C125.379 50.2897 122.819 50.7244 119.937 50.7244Z" fill="black"/>
<path d="M172.461 22.713L164.492 23.5823C164.267 22.7774 163.872 22.0208 163.309 21.3125C162.761 20.6041 162.021 20.0326 161.087 19.598C160.153 19.1633 159.01 18.946 157.658 18.946C155.839 18.946 154.31 19.3404 153.07 20.1292C151.847 20.918 151.243 21.9403 151.259 23.196C151.243 24.2746 151.637 25.1519 152.442 25.8281C153.263 26.5042 154.616 27.0596 156.499 27.4943L162.826 28.8465C166.335 29.6032 168.943 30.8025 170.65 32.4446C172.372 34.0866 173.242 36.2358 173.258 38.892C173.242 41.2263 172.557 43.2869 171.205 45.0738C169.869 46.8447 168.01 48.2291 165.627 49.2272C163.244 50.2253 160.508 50.7244 157.417 50.7244C152.877 50.7244 149.223 49.7746 146.454 47.875C143.685 45.9592 142.035 43.2949 141.503 39.8821L150.028 39.061C150.414 40.7353 151.235 41.999 152.491 42.8522C153.746 43.7054 155.38 44.1321 157.393 44.1321C159.469 44.1321 161.135 43.7054 162.391 42.8522C163.663 41.999 164.299 40.9446 164.299 39.6889C164.299 38.6264 163.888 37.749 163.067 37.0568C162.262 36.3645 161.007 35.8333 159.3 35.463L152.974 34.1349C149.416 33.3944 146.784 32.1467 145.077 30.392C143.371 28.6212 142.526 26.3835 142.542 23.6789C142.526 21.393 143.145 19.4128 144.401 17.7386C145.673 16.0483 147.436 14.7443 149.689 13.8267C151.959 12.8929 154.575 12.4261 157.537 12.4261C161.884 12.4261 165.305 13.3518 167.8 15.2031C170.312 17.0544 171.865 19.5577 172.461 22.713Z" fill="black"/>
<path d="M187.754 38.3608L187.73 27.8082H189.131L202.46 12.909H212.675L196.279 31.1647H194.468L187.754 38.3608ZM179.786 50V0.54541H188.527V50H179.786ZM203.064 50L190.99 33.1207L196.882 26.963L213.52 50H203.064Z" fill="black"/>
</svg>
