<svg width="70" height="17" viewBox="0 0 70 17" fill="none" xmlns="http://www.w3.org/2000/svg">
<path fill-rule="evenodd" clip-rule="evenodd" d="M0 0H11.4921V2.9196H0V0ZM0 16.6V7.44866H10.73V10.3732H3.66813V16.6H0Z" fill="#2490EF"/>
<path d="M23.9024 16.3604H18.4921V0H24.0116C25.5966 0 26.9584 0.327521 28.0965 0.982575C29.24 1.63231 30.1183 2.56695 30.7315 3.78653C31.3447 5.0061 31.6514 6.46532 31.6514 8.1642C31.6514 9.8684 31.3422 11.3329 30.7237 12.5579C30.1104 13.7827 29.2243 14.7228 28.0653 15.3778C26.9116 16.0328 25.5239 16.3604 23.9024 16.3604ZM21.3843 13.796H23.7621C24.8743 13.796 25.802 13.5884 26.5452 13.1729C27.2884 12.7522 27.8471 12.1264 28.2213 11.2956C28.5955 10.4595 28.7825 9.41572 28.7825 8.1642C28.7825 6.91268 28.5955 5.87417 28.2213 5.04871C27.8471 4.2179 27.2935 3.59747 26.5608 3.1874C25.8331 2.77199 24.9288 2.56429 23.8479 2.56429H21.3843V13.796Z" fill="black"/>
<path d="M39.3561 16.6001C38.1555 16.6001 37.1187 16.3445 36.2456 15.8332C35.3777 15.3166 34.7099 14.587 34.242 13.6443C33.7743 12.6964 33.5405 11.5807 33.5405 10.2972C33.5405 9.03499 33.7743 7.92727 34.242 6.97398C34.715 6.01536 35.375 5.26977 36.2222 4.73721C37.0693 4.19932 38.0646 3.93037 39.2079 3.93037C39.946 3.93037 40.6424 4.05287 41.2973 4.29785C41.9572 4.5375 42.5394 4.9103 43.0435 5.41623C43.5528 5.92216 43.953 6.56657 44.2441 7.34943C44.5351 8.12697 44.6805 9.05363 44.6805 10.1294V11.0161H34.8657V9.06695H41.9755C41.9703 8.51308 41.8534 8.02047 41.6247 7.58909C41.396 7.15238 41.0764 6.80888 40.6658 6.55858C40.2605 6.30827 39.7875 6.18313 39.2469 6.18313C38.67 6.18313 38.1633 6.32691 37.7267 6.6145C37.2902 6.89675 36.9498 7.26956 36.7055 7.73288C36.4664 8.19088 36.3443 8.69415 36.3392 9.2427V10.9442C36.3392 11.6579 36.4664 12.2704 36.7211 12.7815C36.9758 13.2876 37.3317 13.6764 37.7892 13.9479C38.2464 14.2141 38.7817 14.3473 39.395 14.3473C39.8057 14.3473 40.1772 14.2887 40.5098 14.1716C40.8425 14.0491 41.1309 13.8707 41.3752 13.6363C41.6194 13.4021 41.804 13.1118 41.9288 12.7656L44.5637 13.0691C44.3974 13.7828 44.0803 14.406 43.6126 14.9385C43.15 15.4657 42.5576 15.8757 41.8351 16.1687C41.1127 16.4563 40.2864 16.6001 39.3561 16.6001Z" fill="black"/>
<path d="M56.3127 7.33345L53.7401 7.62104C53.6674 7.35476 53.5401 7.10445 53.3581 6.87013C53.1815 6.63581 52.9424 6.44674 52.6409 6.30295C52.3395 6.15916 51.9705 6.08725 51.534 6.08725C50.9467 6.08725 50.4529 6.21774 50.0528 6.4787C49.6578 6.73965 49.4628 7.07783 49.4681 7.49322C49.4628 7.85004 49.5902 8.14029 49.85 8.36397C50.1151 8.58765 50.5517 8.77138 51.1597 8.91517L53.2023 9.36253C54.3352 9.61283 55.1772 10.0096 55.7281 10.5528C56.2842 11.096 56.5648 11.807 56.57 12.6858C56.5648 13.4579 56.3439 14.1396 55.9073 14.7307C55.476 15.3166 54.8757 15.7745 54.1066 16.1048C53.3373 16.435 52.4538 16.6001 51.456 16.6001C49.9903 16.6001 48.8107 16.2858 47.9166 15.6574C47.0227 15.0237 46.4901 14.1423 46.3186 13.0133L49.0705 12.7416C49.1952 13.2955 49.4603 13.7135 49.8657 13.9958C50.2711 14.278 50.7986 14.4193 51.4482 14.4193C52.1187 14.4193 52.6565 14.278 53.0618 13.9958C53.4725 13.7135 53.6778 13.3648 53.6778 12.9494C53.6778 12.5979 53.5452 12.3076 53.2801 12.0785C53.0203 11.8496 52.615 11.6738 52.064 11.5514L50.0215 11.112C48.873 10.867 48.0232 10.4543 47.4724 9.87378C46.9214 9.28797 46.6486 8.5477 46.6539 7.653C46.6486 6.89675 46.8487 6.2417 47.2541 5.68784C47.6646 5.12864 48.2338 4.69727 48.9614 4.39371C49.6942 4.08482 50.5386 3.93037 51.495 3.93037C52.8982 3.93037 54.0026 4.2366 54.8081 4.84905C55.6189 5.4615 56.1205 6.28963 56.3127 7.33345Z" fill="black"/>
<path d="M61.25 12.5099L61.2423 9.01896H61.6944L65.9976 4.09008H69.2953L64.002 10.1294H63.4173L61.25 12.5099ZM58.6774 16.3604V0H61.4994V16.3604H58.6774ZM66.1925 16.3604L62.2947 10.7764L64.1968 8.73936L69.5681 16.3604H66.1925Z" fill="black"/>
</svg>
