<svg width="74" height="19" viewBox="0 0 74 19" fill="none" xmlns="http://www.w3.org/2000/svg">
<path fill-rule="evenodd" clip-rule="evenodd" d="M0 0H12.8767V3.27136H0V0ZM0 18.6V8.34609H12.0228V11.6229H4.11007V18.6H0Z" fill="#2490EF"/>
<path d="M22.3002 18.3315H16.2381V0H22.4226C24.1986 0 25.7244 0.366981 26.9997 1.10096C28.2809 1.82897 29.265 2.87622 29.9521 4.24273C30.6392 5.60924 30.9829 7.24427 30.9829 9.14783C30.9829 11.0574 30.6364 12.6983 29.9433 14.0709C29.2562 15.4433 28.2633 16.4966 26.9647 17.2305C25.672 17.9645 24.1171 18.3315 22.3002 18.3315ZM19.4788 15.4582H22.143C23.3892 15.4582 24.4287 15.2256 25.2615 14.76C26.0942 14.2886 26.7202 13.5874 27.1395 12.6566C27.5587 11.7197 27.7683 10.5501 27.7683 9.14783C27.7683 7.74553 27.5587 6.5819 27.1395 5.65698C26.7202 4.72608 26.0999 4.0309 25.2789 3.57142C24.4636 3.10596 23.4503 2.87324 22.2391 2.87324H19.4788V15.4582Z" fill="black"/>
<path d="M39.6161 18.5998C38.2708 18.5998 37.1091 18.3135 36.1308 17.7406C35.1583 17.1617 34.41 16.3442 33.8858 15.288C33.3618 14.2259 33.0997 12.9757 33.0997 11.5376C33.0997 10.1233 33.3618 8.88214 33.8858 7.814C34.4158 6.73988 35.1553 5.90446 36.1045 5.30774C37.0537 4.70504 38.169 4.40369 39.45 4.40369C40.277 4.40369 41.0573 4.54094 41.7911 4.81544C42.5305 5.08396 43.1828 5.50168 43.7476 6.06856C44.3183 6.63545 44.7668 7.3575 45.0929 8.23468C45.419 9.1059 45.582 10.1442 45.582 11.3496V12.3432H34.5846V10.1591H42.551C42.5451 9.53853 42.4142 8.98656 42.1579 8.50322C41.9017 8.01389 41.5435 7.629 41.0836 7.34854C40.6293 7.06808 40.0994 6.92785 39.4937 6.92785C38.8473 6.92785 38.2795 7.08897 37.7903 7.4112C37.3013 7.72746 36.9198 8.14518 36.6461 8.66433C36.3782 9.17751 36.2414 9.74141 36.2356 10.3561V12.2626C36.2356 13.0622 36.3782 13.7485 36.6635 14.3213C36.9489 14.8883 37.3478 15.3239 37.8603 15.6281C38.3727 15.9265 38.9725 16.0757 39.6596 16.0757C40.1198 16.0757 40.536 16.01 40.9088 15.8788C41.2815 15.7415 41.6047 15.5416 41.8783 15.279C42.152 15.0165 42.3588 14.6913 42.4986 14.3034L45.451 14.6435C45.2647 15.4432 44.9094 16.1414 44.3854 16.7381C43.8671 17.3288 43.2032 17.7882 42.3937 18.1165C41.5843 18.4388 40.6584 18.5998 39.6161 18.5998Z" fill="black"/>
<path d="M58.6154 8.21677L55.7328 8.53901C55.6514 8.24064 55.5087 7.96018 55.3049 7.69763C55.1069 7.43507 54.839 7.22322 54.5013 7.06211C54.1635 6.901 53.75 6.82043 53.261 6.82043C52.6029 6.82043 52.0496 6.96663 51.6013 7.25904C51.1587 7.55143 50.9402 7.93035 50.9461 8.39579C50.9402 8.7956 51.083 9.12082 51.3741 9.37145C51.6711 9.62208 52.1603 9.82795 52.8416 9.98906L55.1303 10.4903C56.3996 10.7708 57.3431 11.2153 57.9604 11.824C58.5835 12.4326 58.8979 13.2293 58.9037 14.2139C58.8979 15.0791 58.6504 15.8429 58.1612 16.5053C57.6779 17.1617 57.0053 17.6749 56.1435 18.0449C55.2816 18.4149 54.2916 18.5998 53.1736 18.5998C51.5313 18.5998 50.2095 18.2478 49.2078 17.5436C48.2062 16.8336 47.6094 15.846 47.4172 14.5809L50.5006 14.2765C50.6404 14.8971 50.9374 15.3655 51.3917 15.6819C51.8459 15.9981 52.4369 16.1563 53.1649 16.1563C53.9161 16.1563 54.5187 15.9981 54.9729 15.6819C55.433 15.3655 55.663 14.9748 55.663 14.5093C55.663 14.1155 55.5145 13.7903 55.2175 13.5336C54.9264 13.277 54.4722 13.0801 53.8548 12.9429L51.5663 12.4506C50.2793 12.176 49.3272 11.7136 48.71 11.0632C48.0927 10.4068 47.7869 9.57732 47.7929 8.57482C47.7869 7.72746 48.0112 6.99349 48.4654 6.3729C48.9254 5.74633 49.5631 5.26298 50.3784 4.92285C51.1995 4.57674 52.1457 4.40369 53.2173 4.40369C54.7895 4.40369 56.027 4.74681 56.9296 5.43305C57.838 6.11929 58.4 7.04719 58.6154 8.21677Z" fill="black"/>
<path d="M64.1477 14.0172L64.139 10.1056H64.6456L69.4673 4.58286H73.1622L67.2312 11.3498H66.576L64.1477 14.0172ZM61.2651 18.3315V0H64.4271V18.3315H61.2651ZM69.6856 18.3315L65.3182 12.0748L67.4495 9.79229L73.4679 18.3315H69.6856Z" fill="black"/>
</svg>
