<svg width="69" height="17" viewBox="0 0 69 17" fill="none" xmlns="http://www.w3.org/2000/svg">
<path fill-rule="evenodd" clip-rule="evenodd" d="M0 0H11.4921V2.9196H0V0ZM0 16.6V7.44866H10.73V10.3732H3.66813V16.6H0Z" fill="#2490EF"/>
<path d="M19.9024 16.6H14.4921V0.239601H20.0116C21.5966 0.239601 22.9584 0.567122 24.0965 1.22218C25.24 1.87191 26.1183 2.80655 26.7315 4.02613C27.3447 5.2457 27.6514 6.70492 27.6514 8.4038C27.6514 10.108 27.3422 11.5725 26.7237 12.7975C26.1104 14.0223 25.2243 14.9624 24.0653 15.6174C22.9116 16.2724 21.5239 16.6 19.9024 16.6ZM17.3843 14.0356H19.7621C20.8743 14.0356 21.802 13.828 22.5452 13.4125C23.2884 12.9918 23.8471 12.366 24.2213 11.5352C24.5955 10.6991 24.7825 9.65532 24.7825 8.4038C24.7825 7.15228 24.5955 6.11377 24.2213 5.28831C23.8471 4.4575 23.2935 3.83707 22.5608 3.427C21.8331 3.01159 20.9288 2.80389 19.8479 2.80389H17.3843V14.0356Z" fill="#4C5A67"/>
<path d="M36.467 16.6C35.2664 16.6 34.2296 16.3444 33.3565 15.8331C32.4886 15.3165 31.8208 14.5869 31.3529 13.6442C30.8852 12.6963 30.6514 11.5806 30.6514 10.2971C30.6514 9.03489 30.8852 7.92717 31.3529 6.97388C31.8259 6.01526 32.4859 5.26967 33.3331 4.73711C34.1802 4.19922 35.1755 3.93027 36.3188 3.93027C37.0569 3.93027 37.7533 4.05277 38.4082 4.29775C39.0681 4.5374 39.6503 4.9102 40.1544 5.41613C40.6637 5.92206 41.0639 6.56647 41.355 7.34933C41.646 8.12687 41.7914 9.05353 41.7914 10.1293V11.016H31.9766V9.06685H39.0864C39.0812 8.51298 38.9643 8.02037 38.7356 7.58899C38.5069 7.15228 38.1873 6.80878 37.7767 6.55848C37.3714 6.30817 36.8984 6.18303 36.3578 6.18303C35.7809 6.18303 35.2742 6.32681 34.8376 6.6144C34.4011 6.89665 34.0607 7.26946 33.8164 7.73278C33.5773 8.19078 33.4552 8.69405 33.4501 9.2426V10.9441C33.4501 11.6578 33.5773 12.2703 33.832 12.7814C34.0867 13.2875 34.4426 13.6763 34.9001 13.9478C35.3573 14.214 35.8926 14.3472 36.5059 14.3472C36.9166 14.3472 37.2881 14.2886 37.6207 14.1715C37.9534 14.049 38.2418 13.8706 38.4861 13.6362C38.7303 13.402 38.9149 13.1117 39.0397 12.7655L41.6746 13.069C41.5083 13.7827 41.1912 14.4059 40.7235 14.9384C40.2609 15.4656 39.6685 15.8756 38.946 16.1686C38.2236 16.4562 37.3973 16.6 36.467 16.6Z" fill="#4C5A67"/>
<path d="M54.7855 7.33335L52.2129 7.62094C52.1402 7.35466 52.0129 7.10435 51.8309 6.87003C51.6543 6.63571 51.4152 6.44664 51.1137 6.30285C50.8123 6.15906 50.4433 6.08715 50.0068 6.08715C49.4195 6.08715 48.9257 6.21764 48.5256 6.4786C48.1306 6.73955 47.9356 7.07773 47.9409 7.49312C47.9356 7.84994 48.063 8.14019 48.3228 8.36387C48.5879 8.58755 49.0245 8.77128 49.6325 8.91507L51.6751 9.36243C52.808 9.61273 53.65 10.0095 54.2009 10.5527C54.757 11.0959 55.0376 11.8069 55.0428 12.6857C55.0376 13.4578 54.8167 14.1395 54.3801 14.7306C53.9488 15.3165 53.3485 15.7744 52.5794 16.1047C51.8101 16.4349 50.9266 16.6 49.9288 16.6C48.4631 16.6 47.2835 16.2857 46.3894 15.6573C45.4955 15.0236 44.9629 14.1422 44.7914 13.0132L47.5433 12.7415C47.668 13.2954 47.9331 13.7134 48.3385 13.9957C48.7439 14.2779 49.2714 14.4192 49.921 14.4192C50.5915 14.4192 51.1293 14.2779 51.5346 13.9957C51.9453 13.7134 52.1506 13.3647 52.1506 12.9493C52.1506 12.5978 52.018 12.3075 51.7529 12.0784C51.4931 11.8495 51.0878 11.6737 50.5368 11.5513L48.4943 11.1119C47.3458 10.8669 46.496 10.4542 45.9452 9.87368C45.3942 9.28787 45.1214 8.5476 45.1267 7.6529C45.1214 6.89665 45.3215 6.2416 45.7269 5.68774C46.1374 5.12854 46.7066 4.69717 47.4342 4.39361C48.167 4.08472 49.0114 3.93027 49.9678 3.93027C51.371 3.93027 52.4754 4.2365 53.2809 4.84895C54.0917 5.4614 54.5933 6.28953 54.7855 7.33335Z" fill="#4C5A67"/>
<path d="M60.6154 12.7495L60.6077 9.25856H61.0598L65.363 4.32968H68.6607L63.3674 10.369H62.7827L60.6154 12.7495ZM58.0428 16.6V0.239601H60.8648V16.6H58.0428ZM65.5579 16.6L61.6601 11.016L63.5622 8.97896L68.9335 16.6H65.5579Z" fill="#4C5A67"/>
</svg>
