<svg width="213" height="68" viewBox="0 0 213 68" fill="none" xmlns="http://www.w3.org/2000/svg">
<path fill-rule="evenodd" clip-rule="evenodd" d="M0 9.0498H33.4319V17.8935H0V9.0498ZM0 59.3323V31.6123H31.2149V40.4708H10.671V59.3323H0Z" fill="#2490EF"/>
<path d="M70.0682 59H53.3097V9.54545H70.4063C75.3164 9.54545 79.5342 10.5355 83.0597 12.5156C86.6014 14.4796 89.322 17.3049 91.2217 20.9915C93.1213 24.678 94.0711 29.089 94.0711 34.2244C94.0711 39.3759 93.1132 43.803 91.1975 47.5057C89.2979 51.2083 86.5531 54.0497 82.9631 56.0298C79.3893 58.0099 75.091 59 70.0682 59ZM62.2685 51.2486H69.6336C73.0787 51.2486 75.9522 50.6207 78.2543 49.3651C80.5564 48.0933 82.287 46.2017 83.4461 43.6903C84.6052 41.1629 85.1847 38.0076 85.1847 34.2244C85.1847 30.4413 84.6052 27.3021 83.4461 24.8068C82.287 22.2955 80.5725 20.42 78.3026 19.1804C76.0488 17.9247 73.2477 17.2969 69.8992 17.2969H62.2685V51.2486ZM117.937 59.7244C114.219 59.7244 111.007 58.9517 108.302 57.4062C105.614 55.8447 103.545 53.6392 102.096 50.7898C100.647 47.9242 99.923 44.5516 99.923 40.6719C99.923 36.8565 100.647 33.508 102.096 30.6264C103.561 27.7287 105.606 25.4749 108.23 23.8651C110.854 22.2391 113.937 21.4261 117.478 21.4261C119.764 21.4261 121.922 21.7964 123.95 22.5369C125.995 23.2614 127.798 24.3883 129.359 25.9176C130.937 27.447 132.176 29.3949 133.078 31.7614C133.979 34.1117 134.43 36.9129 134.43 40.1648V42.8452H104.028V36.9531H126.051C126.035 35.2789 125.673 33.7898 124.964 32.4858C124.256 31.1657 123.266 30.1274 121.994 29.3707C120.738 28.6141 119.273 28.2358 117.599 28.2358C115.812 28.2358 114.243 28.6705 112.89 29.5398C111.538 30.393 110.484 31.5199 109.727 32.9205C108.986 34.3049 108.608 35.8262 108.592 37.4844V42.6278C108.592 44.785 108.986 46.6364 109.775 48.1818C110.564 49.7112 111.667 50.8864 113.084 51.7074C114.5 52.5123 116.158 52.9148 118.058 52.9148C119.33 52.9148 120.481 52.7377 121.511 52.3835C122.541 52.0133 123.435 51.474 124.192 50.7656C124.948 50.0573 125.52 49.1799 125.906 48.1335L134.068 49.0511C133.553 51.2083 132.571 53.0919 131.122 54.7017C129.689 56.2955 127.854 57.535 125.616 58.4205C123.379 59.2898 120.819 59.7244 117.937 59.7244ZM170.461 31.7131L162.492 32.5824C162.267 31.7775 161.872 31.0208 161.309 30.3125C160.761 29.6042 160.021 29.0327 159.087 28.598C158.153 28.1634 157.01 27.946 155.658 27.946C153.839 27.946 152.31 28.3404 151.07 29.1293C149.847 29.9181 149.243 30.9403 149.259 32.196C149.243 33.2746 149.637 34.152 150.442 34.8281C151.263 35.5043 152.616 36.0597 154.499 36.4943L160.826 37.8466C164.335 38.6032 166.943 39.8026 168.65 41.4446C170.372 43.0866 171.242 45.2358 171.258 47.892C171.242 50.2263 170.557 52.2869 169.205 54.0739C167.869 55.8447 166.01 57.2292 163.627 58.2273C161.244 59.2254 158.508 59.7244 155.417 59.7244C150.877 59.7244 147.223 58.7746 144.454 56.875C141.685 54.9593 140.035 52.295 139.503 48.8821L148.027 48.0611C148.414 49.7353 149.235 50.9991 150.491 51.8523C151.746 52.7055 153.38 53.1321 155.393 53.1321C157.469 53.1321 159.135 52.7055 160.391 51.8523C161.663 50.9991 162.299 49.9446 162.299 48.6889C162.299 47.6264 161.888 46.7491 161.067 46.0568C160.262 45.3646 159.007 44.8333 157.3 44.4631L150.974 43.1349C147.416 42.3944 144.784 41.1468 143.077 39.392C141.371 37.6212 140.526 35.3835 140.542 32.679C140.526 30.393 141.145 28.4129 142.401 26.7386C143.673 25.0483 145.436 23.7443 147.689 22.8267C149.959 21.893 152.575 21.4261 155.537 21.4261C159.884 21.4261 163.305 22.3518 165.8 24.2031C168.312 26.0545 169.865 28.5578 170.461 31.7131ZM185.754 47.3608L185.73 36.8082H187.131L200.46 21.9091H210.675L194.279 40.1648H192.468L185.754 47.3608ZM177.786 59V9.54545H186.527V59H177.786ZM201.064 59L188.99 42.1207L194.882 35.9631L211.52 59H201.064Z" fill="black"/>
</svg>
