<svg width="22" height="22" viewBox="0 0 22 22" fill="none" xmlns="http://www.w3.org/2000/svg">
<path d="M14.2127 7.78706L18.0709 3.92887" stroke="#1F272E" stroke-linecap="round" stroke-linejoin="round"/>
<path d="M14.2127 14.2127L18.0709 18.0708" stroke="#1F272E" stroke-linecap="round" stroke-linejoin="round"/>
<path d="M7.78726 14.2127L3.92908 18.0708" stroke="#1F272E" stroke-linecap="round" stroke-linejoin="round"/>
<path d="M7.78726 7.78706L3.92908 3.92887" stroke="#1F272E" stroke-linecap="round" stroke-linejoin="round"/>
<path d="M11 21C16.5228 21 21 16.5228 21 11C21 5.47715 16.5228 1 11 1C5.47715 1 1 5.47715 1 11C1 16.5228 5.47715 21 11 21Z" stroke="#1F272E" stroke-linecap="round" stroke-linejoin="round"/>
<path d="M11 15.5454C13.5103 15.5454 15.5454 13.5103 15.5454 10.9999C15.5454 8.48952 13.5103 6.45445 11 6.45445C8.48958 6.45445 6.45451 8.48952 6.45451 10.9999C6.45451 13.5103 8.48958 15.5454 11 15.5454Z" stroke="#1F272E" stroke-linecap="round" stroke-linejoin="round"/>
</svg>
