<svg width="24" height="24" viewBox="0 0 24 24" fill="none" xmlns="http://www.w3.org/2000/svg">
<path d="M12 24C5.37273 24 0 18.6273 0 12C0 5.37273 5.37273 0 12 0C18.6273 0 24 5.37273 24 12C24 18.6273 18.6273 24 12 24ZM12 1.09091C5.97273 1.09091 1.09091 5.97273 1.09091 12C1.09091 18.0273 5.97273 22.9091 12 22.9091C18.0273 22.9091 22.9091 18.0273 22.9091 12C22.9091 5.97273 18.0273 1.09091 12 1.09091ZM8.18191 8.18182C7.58191 8.18182 7.0911 8.67263 7.0911 9.27263C7.0911 9.87263 7.58191 10.3634 8.18191 10.3634C8.78191 10.3634 9.27273 9.87263 9.27273 9.27263C9.27273 8.67263 8.78191 8.18182 8.18191 8.18182ZM15.8183 8.18182C15.2183 8.18182 14.7275 8.67263 14.7275 9.27263C14.7275 9.87263 15.2183 10.3634 15.8183 10.3634C16.4183 10.3634 16.9091 9.87263 16.9091 9.27263C16.9093 8.67263 16.4183 8.18182 15.8183 8.18182ZM12.0002 18.5455C9.05474 18.5455 6.62747 16.4182 6.10929 13.6364H7.22752C7.71833 15.8182 9.68196 17.4544 12.0002 17.4544C14.3185 17.4544 16.2822 15.818 16.773 13.6364H17.8912C17.373 16.4182 14.9456 18.5455 12.0002 18.5455Z" fill="#A6B1B9"/>
</svg>
