<svg width="13" height="14" viewBox="0 0 13 14" fill="none" xmlns="http://www.w3.org/2000/svg">
    <path fill-rule="evenodd" clip-rule="evenodd" d="M6.8075 0.833507H6.75569C5.91253 0.825803 5.10072 1.15293 4.49845 1.74315C3.89557 2.33398 3.55202 3.14006 3.54337 3.98414L3.54334 3.98414V3.98927V4.2827H2.83325C1.72868 4.2827 0.833252 5.17813 0.833252 6.2827V11.1664C0.833252 12.271 1.72868 13.1664 2.83325 13.1664H10.6734C11.7779 13.1664 12.6734 12.271 12.6734 11.1664V6.2827C12.6734 5.17813 11.7779 4.2827 10.6734 4.2827H9.96327V4.04584C9.97097 3.20269 9.64384 2.39088 9.05362 1.78861C8.4628 1.18573 7.65671 0.842187 6.81263 0.833533V0.833507H6.8075ZM8.96327 4.2827V4.04347V4.03849L8.96329 4.03849C8.96905 3.45956 8.74464 2.90204 8.33941 2.48854C7.93475 2.07562 7.38285 1.84007 6.80481 1.83351H6.7533H6.74833V1.83348C6.1694 1.82772 5.61188 2.05213 5.19838 2.45736C4.78546 2.86203 4.54991 3.41392 4.54334 3.99196V4.2827H8.96327ZM2.83325 5.2827C2.28097 5.2827 1.83325 5.73042 1.83325 6.2827V11.1664C1.83325 11.7187 2.28097 12.1664 2.83325 12.1664H10.6734C11.2256 12.1664 11.6734 11.7187 11.6734 11.1664V6.2827C11.6734 5.73042 11.2256 5.2827 10.6734 5.2827H2.83325ZM6.75345 9.20273C7.01755 9.20273 7.23164 8.98864 7.23164 8.72454C7.23164 8.46044 7.01755 8.24634 6.75345 8.24634C6.48935 8.24634 6.27525 8.46044 6.27525 8.72454C6.27525 8.98864 6.48935 9.20273 6.75345 9.20273ZM8.23164 8.72454C8.23164 9.54092 7.56983 10.2027 6.75345 10.2027C5.93706 10.2027 5.27525 9.54092 5.27525 8.72454C5.27525 7.90815 5.93706 7.24634 6.75345 7.24634C7.56983 7.24634 8.23164 7.90815 8.23164 8.72454Z" fill="#74808B"/>
</svg>
