<svg width="22" height="22" viewBox="0 0 22 22" fill="none" xmlns="http://www.w3.org/2000/svg">
<path d="M20.0001 1H15.3334C14.7811 1 14.3334 1.44772 14.3334 2V20.9998H20.0001C20.5523 20.9998 21.0001 20.552 21.0001 19.9998V2C21.0001 1.44772 20.5523 1 20.0001 1Z" stroke="#1F272E" stroke-miterlimit="10" stroke-linecap="square"/>
<path d="M13.3333 6.71417H8.66661C8.11432 6.71417 7.66661 7.16189 7.66661 7.71417V20.9997H14.3333V7.71417C14.3333 7.16189 13.8856 6.71417 13.3333 6.71417Z" stroke="#1F272E" stroke-miterlimit="10" stroke-linecap="square"/>
<path d="M6.66667 12.6667H2C1.44772 12.6667 1 13.1144 1 13.6667V19.9999C1 20.5522 1.44771 20.9999 2 20.9999H7.66667V13.6667C7.66667 13.1144 7.21895 12.6667 6.66667 12.6667Z" stroke="#1F272E" stroke-miterlimit="10" stroke-linecap="square"/>
</svg>
