<svg width="16" height="16" viewBox="0 0 16 16" fill="none" xmlns="http://www.w3.org/2000/svg">
<path fill-rule="evenodd" clip-rule="evenodd" d="M8.00016 14.6666C11.6821 14.6666 14.6668 11.6819 14.6668 7.99998C14.6668 4.31808 11.6821 1.33331 8.00016 1.33331C4.31826 1.33331 1.3335 4.31808 1.3335 7.99998C1.3335 11.6819 4.31826 14.6666 8.00016 14.6666ZM5.30317 5.30298C5.59606 5.01009 6.07094 5.01009 6.36383 5.30298L8.00092 6.94008L9.63799 5.30302C9.93088 5.01012 10.4058 5.01012 10.6986 5.30302C10.9915 5.59591 10.9915 6.07078 10.6986 6.36368L9.06159 8.00074L10.6986 9.6378C10.9915 9.93069 10.9915 10.4056 10.6986 10.6985C10.4058 10.9914 9.93088 10.9914 9.63799 10.6985L8.00093 9.0614L6.36383 10.6985C6.07094 10.9914 5.59606 10.9914 5.30317 10.6985C5.01028 10.4056 5.01027 9.93073 5.30317 9.63784L6.94026 8.00074L5.30317 6.36364C5.01028 6.07075 5.01028 5.59588 5.30317 5.30298Z" fill="#F56B6B"/>
</svg>
