<svg width="24" height="23" viewBox="0 0 24 23" fill="none" xmlns="http://www.w3.org/2000/svg">
<path d="M1.18726 14.4773L3.42761 16.7176L3.60012 16.5451C4.55459 15.5907 6.09432 15.59 7.048 16.5437C8.00181 17.4975 8.00118 19.037 7.04658 19.9916L6.87407 20.1641L9.11442 22.4045L23.2566 8.26232L21.0162 6.02197L20.8437 6.19449C19.8891 7.14908 18.3496 7.14971 17.3958 6.19591C16.4421 5.24222 16.4428 3.7025 17.3972 2.74803L17.5697 2.57551L15.3294 0.33516L1.18726 14.4773ZM1.87677 14.477L11.0174 5.33636L18.255 12.5739L9.11433 21.7146L7.52573 20.126C8.48919 18.9774 8.47138 17.2773 7.39267 16.1986C6.31374 15.1196 4.60856 15.0958 3.45999 16.0602L1.87677 14.477ZM11.3623 4.99143L15.329 1.02474L16.9122 2.60792C15.9479 3.75638 15.9716 5.46168 17.0506 6.5406C18.1293 7.61931 19.8294 7.63714 20.978 6.67367L22.5666 8.26227L18.5999 12.229L11.3623 4.99143Z" fill="#1F272E" stroke="#1F272E" stroke-width="0.4"/>
</svg>
