<svg width="17" height="17" viewBox="0 0 17 17" fill="none" xmlns="http://www.w3.org/2000/svg">
<path d="M9.00034 5.0118C9.00034 4.73566 8.77648 4.5118 8.50034 4.5118C8.2242 4.5118 8.00034 4.73566 8.00034 5.0118H9.00034ZM8.50034 8.50017H8.00034C8.00034 8.63277 8.05301 8.75995 8.14678 8.85371L8.50034 8.50017ZM10.6464 11.3535C10.8417 11.5488 11.1583 11.5488 11.3535 11.3535C11.5488 11.1583 11.5488 10.8417 11.3536 10.6464L10.6464 11.3535ZM15.5 8.5C15.5 12.366 12.366 15.5 8.5 15.5V16.5C12.9183 16.5 16.5 12.9183 16.5 8.5H15.5ZM8.5 15.5C4.63401 15.5 1.5 12.366 1.5 8.5H0.5C0.5 12.9183 4.08172 16.5 8.5 16.5V15.5ZM1.5 8.5C1.5 4.63401 4.63401 1.5 8.5 1.5V0.5C4.08172 0.5 0.5 4.08172 0.5 8.5H1.5ZM8.5 1.5C12.366 1.5 15.5 4.63401 15.5 8.5H16.5C16.5 4.08172 12.9183 0.5 8.5 0.5V1.5ZM8.00034 5.0118V8.50017H9.00034V5.0118H8.00034ZM8.14678 8.85371L10.6464 11.3535L11.3536 10.6464L8.8539 8.14663L8.14678 8.85371Z" fill="#A6B1B9"/>
</svg>
