<svg width="17" height="16" viewBox="0 0 17 16" fill="none" xmlns="http://www.w3.org/2000/svg">
<path d="M7.11552 8.48467V11.1533H8.63755C9.89361 11.1533 10.5216 10.7085 10.5216 9.81896C10.5216 8.92944 9.89361 8.48467 8.63755 8.48467H7.11552ZM7.11552 4.6092V6.87548H8.24195C8.85881 6.87548 9.2991 6.7682 9.56283 6.55364C9.82656 6.33461 9.95843 6.06865 9.95843 5.75575C9.95843 5.43838 9.82433 5.16794 9.55613 4.94444C9.2924 4.72094 8.85434 4.6092 8.24195 4.6092H7.11552ZM5.31858 3H8.24195C8.65766 3 9.03761 3.03129 9.3818 3.09387C9.72599 3.15645 10.0165 3.23914 10.2534 3.34195C10.4904 3.44029 10.7004 3.56322 10.8837 3.71073C11.067 3.85377 11.2123 4.00128 11.3195 4.15326C11.4268 4.30077 11.514 4.46392 11.581 4.64272C11.6481 4.81705 11.6928 4.9802 11.7151 5.13218C11.742 5.27969 11.7554 5.43167 11.7554 5.58812C11.7554 6.07535 11.6257 6.47094 11.3665 6.7749C11.1117 7.07439 10.7742 7.28895 10.354 7.41858C10.7831 7.52139 11.1519 7.72031 11.4603 8.01533C11.7732 8.31034 11.9945 8.6143 12.1241 8.9272C12.2538 9.2401 12.3186 9.53736 12.3186 9.81896C12.3186 10.0559 12.294 10.2928 12.2448 10.5297C12.2001 10.7621 12.1018 11.0192 11.9498 11.3008C11.7978 11.5779 11.6011 11.8215 11.3598 12.0316C11.1184 12.2372 10.7787 12.4116 10.3406 12.5546C9.90702 12.6932 9.40638 12.7625 8.8387 12.7625H5.31858V3Z" fill="#1F272E"/>
</svg>
