<svg width="17" height="16" viewBox="0 0 17 16" fill="none" xmlns="http://www.w3.org/2000/svg">
<path d="M9.14357 14.1333C7.67325 14.1333 5.74817 14.1333 4.31751 14.1333C3.21294 14.1333 2.31857 13.2379 2.31857 12.1333V4C2.31857 2.89543 3.214 2 4.31857 2H13.3186C14.4231 2 15.3186 2.89543 15.3186 4V8.37" stroke="#1F272E" stroke-miterlimit="10" stroke-linecap="square"/>
<path d="M7.27946 6.07369C7.27946 6.37193 7.0377 6.61369 6.73946 6.61369C6.44123 6.61369 6.19946 6.37193 6.19946 6.07369C6.19946 5.77546 6.44123 5.53369 6.73946 5.53369C7.0377 5.53369 7.27946 5.77546 7.27946 6.07369Z" stroke="#1F272E" stroke-miterlimit="10" stroke-linecap="square"/>
<path d="M5.43875 11.2735L7.51875 8.67353L9.59875 10.2335L12.1988 7.11353" stroke="#1F272E" stroke-miterlimit="10" stroke-linecap="round" stroke-linejoin="round"/>
</svg>
