<svg width="17" height="16" viewBox="0 0 17 16" fill="none" xmlns="http://www.w3.org/2000/svg">
<path d="M6.09201 10.7268L11.5463 5.27246" stroke="#1F272E" stroke-linecap="round" stroke-linejoin="round"/>
<path d="M7.72766 4.72735L9.55158 2.90344C10.1303 2.32496 10.915 2 11.7333 2C12.5515 2 13.3363 2.32496 13.915 2.90344V2.90344C14.4935 3.48215 14.8185 4.2669 14.8185 5.08516C14.8185 5.90341 14.4935 6.68817 13.915 7.26687L12.0911 9.09079" stroke="#1F272E" stroke-linecap="round" stroke-linejoin="round"/>
<path d="M5.54593 6.90918L3.72201 8.7331C3.14354 9.31181 2.81857 10.0966 2.81857 10.9148C2.81857 11.7331 3.14354 12.5178 3.72201 13.0965V13.0965C4.30072 13.675 5.08548 14 5.90373 14C6.72198 14 7.50674 13.675 8.08545 13.0965L9.90937 11.2726" stroke="#1F272E" stroke-linecap="round" stroke-linejoin="round"/>
</svg>
