<svg width="17" height="16" viewBox="0 0 17 16" fill="none" xmlns="http://www.w3.org/2000/svg">
<path d="M6.73553 3.41895H14.8186" stroke="#1F272E" stroke-linecap="round" stroke-linejoin="round"/>
<path d="M6.7355 7.89551H14.8186" stroke="#1F272E" stroke-linecap="round" stroke-linejoin="round"/>
<path d="M6.7355 12.3721H14.8186" stroke="#1F272E" stroke-linecap="round" stroke-linejoin="round"/>
<path d="M3.69943 4.7998V2.61035H3.68576L2.98068 3.08691V2.46973L3.69748 1.98145H4.41232V4.7998H3.69943Z" fill="#1F272E"/>
<path d="M2.83419 7.34863C2.83419 7.06999 2.9351 6.84408 3.13692 6.6709C3.33874 6.49772 3.60372 6.41113 3.93184 6.41113C4.24955 6.41113 4.50476 6.48861 4.69747 6.64355C4.89148 6.7985 4.98848 7.00033 4.98848 7.24902C4.98848 7.31934 4.97742 7.3903 4.95528 7.46191C4.93315 7.53223 4.9071 7.59473 4.87716 7.64941C4.84721 7.7028 4.80619 7.76139 4.75411 7.8252C4.70333 7.8877 4.65971 7.93783 4.62325 7.97559C4.58679 8.01204 4.53926 8.05827 4.48067 8.11426L3.80684 8.73535V8.74902H5.02364V9.2998H2.8752V8.82129L3.97481 7.80957C4.0933 7.69629 4.17598 7.60059 4.22286 7.52246C4.27104 7.44303 4.29512 7.3597 4.29512 7.27246C4.29512 7.18132 4.25932 7.10514 4.1877 7.04395C4.11609 6.98145 4.02299 6.9502 3.90841 6.9502C3.78731 6.9502 3.68705 6.98796 3.60762 7.06348C3.5295 7.1377 3.49044 7.23275 3.49044 7.34863V7.3623H2.83419V7.34863Z" fill="#1F272E"/>
<path d="M3.56661 12.6064V12.1123H3.90841C4.0295 12.1123 4.1265 12.0817 4.19942 12.0205C4.27234 11.958 4.3088 11.876 4.3088 11.7744C4.3088 11.6715 4.27299 11.5908 4.20137 11.5322C4.12976 11.4736 4.03015 11.4443 3.90255 11.4443C3.78015 11.4443 3.68054 11.4782 3.60372 11.5459C3.5269 11.6136 3.48653 11.7021 3.48262 11.8115H2.83419C2.8394 11.5394 2.94226 11.3213 3.14278 11.1572C3.3433 10.9932 3.60697 10.9111 3.9338 10.9111C4.2476 10.9111 4.4989 10.9808 4.6877 11.1201C4.87781 11.2594 4.97286 11.445 4.97286 11.6768C4.97286 11.8447 4.91882 11.9873 4.81075 12.1045C4.70268 12.2217 4.5614 12.2959 4.38692 12.3271V12.3428C4.59786 12.3623 4.76518 12.432 4.88887 12.5518C5.01387 12.6715 5.07637 12.8271 5.07637 13.0186C5.07637 13.2764 4.96895 13.4827 4.75411 13.6377C4.54057 13.7926 4.25801 13.8701 3.90645 13.8701C3.57703 13.8701 3.3101 13.7874 3.10567 13.6221C2.90255 13.4567 2.79382 13.2367 2.7795 12.9619H3.46309C3.4696 13.0687 3.51322 13.1533 3.59395 13.2158C3.67468 13.277 3.78275 13.3076 3.91817 13.3076C4.04578 13.3076 4.14929 13.2757 4.22872 13.2119C4.30945 13.1468 4.34981 13.0622 4.34981 12.958C4.34981 12.8486 4.31075 12.7627 4.23262 12.7002C4.1545 12.6377 4.04708 12.6064 3.91036 12.6064H3.56661Z" fill="#1F272E"/>
</svg>
