<svg width="17" height="16" viewBox="0 0 17 16" fill="none" xmlns="http://www.w3.org/2000/svg">
<path fill-rule="evenodd" clip-rule="evenodd" d="M7.25573 3.3121L4.33894 3.3121C4.0513 3.3121 3.81809 3.54507 3.81809 3.83296L3.81809 7.79145C3.81809 8.07909 4.0513 8.31231 4.33894 8.31231L6.71987 8.31231C6.60797 10.2065 5.86305 11.4145 4.45232 11.9977C4.18655 12.1078 4.06015 12.4123 4.17002 12.6783C4.28039 12.944 4.58558 13.0699 4.85059 12.9606C6.79209 12.1577 7.77658 10.4186 7.77658 7.79145L7.77658 3.83296C7.77658 3.54507 7.54337 3.3121 7.25573 3.3121ZM13.2977 3.31211L10.3809 3.3121C10.0933 3.3121 9.86008 3.54507 9.86008 3.83296L9.86008 7.79145C9.86008 8.0791 10.0933 8.31231 10.3809 8.31231L12.7619 8.31231C12.65 10.2065 11.905 11.4145 10.4943 11.9977C10.2285 12.1078 10.1021 12.4123 10.212 12.6783C10.3224 12.944 10.6268 13.0699 10.8926 12.9606C12.8341 12.1577 13.8186 10.4186 13.8186 7.79145L13.8186 3.83296C13.8186 3.54507 13.5854 3.31211 13.2977 3.31211Z" fill="#1F272E"/>
</svg>
