<svg width="17" height="16" viewBox="0 0 17 16" fill="none" xmlns="http://www.w3.org/2000/svg">
<g clip-path="url(#clip0_3327_18531)">
<path d="M6.84135 2.2998V7.6767C6.84135 8.26692 7.01448 8.74106 7.36074 9.09913C7.71094 9.45326 8.19688 9.63033 8.81858 9.63033C9.44028 9.63033 9.92623 9.45326 10.2764 9.09913C10.6266 8.74106 10.8017 8.26692 10.8017 7.6767V2.2998H12.3186V7.81245C12.3186 8.75287 12.0018 9.51228 11.3683 10.0907C10.7388 10.6691 9.88884 10.9583 8.81858 10.9583C7.75225 10.9583 6.90234 10.6691 6.26883 10.0907C5.63533 9.51228 5.31858 8.75287 5.31858 7.81245V2.2998H6.84135Z" fill="#1F272E"/>
<path d="M2.81858 13.5C2.81858 13.2239 3.04244 13 3.31858 13H14.3186C14.5947 13 14.8186 13.2239 14.8186 13.5C14.8186 13.7761 14.5947 14 14.3186 14H3.31858C3.04244 14 2.81858 13.7761 2.81858 13.5Z" fill="#1F272E"/>
</g>
<defs>
<clipPath id="clip0_3327_18531">
<rect width="16" height="16" fill="white" transform="translate(0.818581)"/>
</clipPath>
</defs>
</svg>
