<svg width="349" height="82" viewBox="0 0 349 82" fill="none" xmlns="http://www.w3.org/2000/svg">
<path d="M33.4319 16H0V24.794H33.4319V16Z" fill="#0089FF"/>
<path d="M0 38.4357V66H10.671V47.2444H31.2149V38.4357H0Z" fill="#0089FF"/>
<path d="M54.8778 66V16.5455H63.8366V37.4815H86.7528V16.5455H95.7358V66H86.7528V44.9915H63.8366V66H54.8778ZM119.813 66.7244C116.095 66.7244 112.883 65.9517 110.179 64.4062C107.49 62.8447 105.421 60.6392 103.973 57.7898C102.524 54.9242 101.799 51.5516 101.799 47.6719C101.799 43.8565 102.524 40.508 103.973 37.6264C105.438 34.7287 107.482 32.4749 110.106 30.8651C112.73 29.2391 115.813 28.4261 119.355 28.4261C121.641 28.4261 123.798 28.7964 125.826 29.5369C127.871 30.2614 129.674 31.3883 131.235 32.9176C132.813 34.447 134.053 36.3949 134.954 38.7614C135.856 41.1117 136.306 43.9129 136.306 47.1648V49.8452H105.904V43.9531H127.927C127.911 42.2789 127.549 40.7898 126.84 39.4858C126.132 38.1657 125.142 37.1274 123.87 36.3707C122.615 35.6141 121.15 35.2358 119.475 35.2358C117.688 35.2358 116.119 35.6705 114.767 36.5398C113.414 37.393 112.36 38.5199 111.603 39.9205C110.863 41.3049 110.484 42.8262 110.468 44.4844V49.6278C110.468 51.785 110.863 53.6364 111.652 55.1818C112.44 56.7112 113.543 57.8864 114.96 58.7074C116.376 59.5123 118.035 59.9148 119.934 59.9148C121.206 59.9148 122.357 59.7377 123.387 59.3835C124.418 59.0133 125.311 58.474 126.068 57.7656C126.824 57.0573 127.396 56.1799 127.782 55.1335L135.944 56.0511C135.429 58.2083 134.447 60.0919 132.998 61.7017C131.565 63.2955 129.73 64.535 127.492 65.4205C125.255 66.2898 122.695 66.7244 119.813 66.7244ZM150.743 16.5455V66H142.002V16.5455H150.743ZM158.032 79.9091V28.9091H166.629V35.0426H167.136C167.587 34.1411 168.222 33.1832 169.043 32.169C169.864 31.1387 170.975 30.2614 172.376 29.5369C173.776 28.7964 175.563 28.4261 177.737 28.4261C180.602 28.4261 183.186 29.1586 185.488 30.6236C187.806 32.0724 189.641 34.2216 190.994 37.071C192.362 39.9044 193.046 43.3816 193.046 47.5028C193.046 51.5758 192.378 55.0369 191.042 57.8864C189.706 60.7358 187.887 62.9091 185.585 64.4062C183.283 65.9034 180.675 66.652 177.761 66.652C175.636 66.652 173.873 66.2978 172.472 65.5895C171.072 64.8812 169.945 64.0279 169.092 63.0298C168.255 62.0156 167.603 61.0578 167.136 60.1562H166.774V79.9091H158.032ZM166.605 47.4545C166.605 49.8532 166.943 51.9541 167.619 53.7571C168.311 55.5601 169.301 56.9687 170.589 57.983C171.893 58.9811 173.471 59.4801 175.322 59.4801C177.254 59.4801 178.872 58.965 180.176 57.9347C181.48 56.8883 182.462 55.4635 183.122 53.6605C183.798 51.8414 184.136 49.7727 184.136 47.4545C184.136 45.1525 183.806 43.108 183.146 41.321C182.486 39.5341 181.504 38.1335 180.2 37.1193C178.896 36.1051 177.27 35.598 175.322 35.598C173.454 35.598 171.869 36.089 170.565 37.071C169.261 38.053 168.271 39.4294 167.595 41.2003C166.935 42.9711 166.605 45.0559 166.605 47.4545ZM212.596 66.652C209.682 66.652 207.075 65.9034 204.772 64.4062C202.47 62.9091 200.651 60.7358 199.315 57.8864C197.979 55.0369 197.311 51.5758 197.311 47.5028C197.311 43.3816 197.987 39.9044 199.339 37.071C200.708 34.2216 202.551 32.0724 204.869 30.6236C207.187 29.1586 209.771 28.4261 212.62 28.4261C214.794 28.4261 216.581 28.7964 217.981 29.5369C219.382 30.2614 220.493 31.1387 221.314 32.169C222.135 33.1832 222.771 34.1411 223.221 35.0426H223.584V16.5455H232.349V66H223.753V60.1562H223.221C222.771 61.0578 222.119 62.0156 221.265 63.0298C220.412 64.0279 219.285 64.8812 217.885 65.5895C216.484 66.2978 214.721 66.652 212.596 66.652ZM215.035 59.4801C216.887 59.4801 218.464 58.9811 219.768 57.983C221.072 56.9687 222.062 55.5601 222.738 53.7571C223.414 51.9541 223.753 49.8532 223.753 47.4545C223.753 45.0559 223.414 42.9711 222.738 41.2003C222.078 39.4294 221.096 38.053 219.792 37.071C218.504 36.089 216.919 35.598 215.035 35.598C213.087 35.598 211.461 36.1051 210.157 37.1193C208.853 38.1335 207.871 39.5341 207.211 41.321C206.551 43.108 206.221 45.1525 206.221 47.4545C206.221 49.7727 206.551 51.8414 207.211 53.6605C207.887 55.4635 208.878 56.8883 210.182 57.9347C211.502 58.965 213.12 59.4801 215.035 59.4801ZM256.385 66.7244C252.666 66.7244 249.454 65.9517 246.75 64.4062C244.061 62.8447 241.993 60.6392 240.544 57.7898C239.095 54.9242 238.37 51.5516 238.37 47.6719C238.37 43.8565 239.095 40.508 240.544 37.6264C242.009 34.7287 244.053 32.4749 246.677 30.8651C249.301 29.2391 252.384 28.4261 255.926 28.4261C258.212 28.4261 260.369 28.7964 262.397 29.5369C264.442 30.2614 266.245 31.3883 267.806 32.9176C269.384 34.447 270.624 36.3949 271.525 38.7614C272.427 41.1117 272.877 43.9129 272.877 47.1648V49.8452H242.475V43.9531H264.498C264.482 42.2789 264.12 40.7898 263.412 39.4858C262.703 38.1657 261.713 37.1274 260.441 36.3707C259.186 35.6141 257.721 35.2358 256.047 35.2358C254.26 35.2358 252.69 35.6705 251.338 36.5398C249.985 37.393 248.931 38.5199 248.174 39.9205C247.434 41.3049 247.056 42.8262 247.039 44.4844V49.6278C247.039 51.785 247.434 53.6364 248.223 55.1818C249.011 56.7112 250.114 57.8864 251.531 58.7074C252.948 59.5123 254.606 59.9148 256.505 59.9148C257.777 59.9148 258.928 59.7377 259.958 59.3835C260.989 59.0133 261.882 58.474 262.639 57.7656C263.395 57.0573 263.967 56.1799 264.353 55.1335L272.515 56.0511C272 58.2083 271.018 60.0919 269.569 61.7017C268.136 63.2955 266.301 64.535 264.064 65.4205C261.826 66.2898 259.266 66.7244 256.385 66.7244ZM307.888 38.7131L299.919 39.5824C299.694 38.7775 299.3 38.0208 298.736 37.3125C298.189 36.6042 297.448 36.0327 296.514 35.598C295.581 35.1634 294.438 34.946 293.086 34.946C291.266 34.946 289.737 35.3404 288.497 36.1293C287.274 36.9181 286.67 37.9403 286.686 39.196C286.67 40.2746 287.065 41.152 287.87 41.8281C288.691 42.5043 290.043 43.0597 291.926 43.4943L298.253 44.8466C301.763 45.6032 304.371 46.8026 306.077 48.4446C307.8 50.0866 308.669 52.2358 308.685 54.892C308.669 57.2263 307.985 59.2869 306.632 61.0739C305.296 62.8447 303.437 64.2292 301.054 65.2273C298.672 66.2254 295.935 66.7244 292.844 66.7244C288.304 66.7244 284.65 65.7746 281.881 63.875C279.112 61.9593 277.462 59.295 276.931 55.8821L285.455 55.0611C285.841 56.7353 286.662 57.9991 287.918 58.8523C289.174 59.7055 290.808 60.1321 292.82 60.1321C294.897 60.1321 296.563 59.7055 297.818 58.8523C299.09 57.9991 299.726 56.9446 299.726 55.6889C299.726 54.6264 299.316 53.7491 298.495 53.0568C297.69 52.3646 296.434 51.8333 294.728 51.4631L288.401 50.1349C284.843 49.3944 282.211 48.1468 280.505 46.392C278.798 44.6212 277.953 42.3835 277.969 39.679C277.953 37.393 278.573 35.4129 279.828 33.7386C281.1 32.0483 282.863 30.7443 285.117 29.8267C287.387 28.893 290.003 28.4261 292.965 28.4261C297.311 28.4261 300.732 29.3518 303.228 31.2031C305.739 33.0545 307.292 35.5578 307.888 38.7131ZM322.162 54.3608L322.138 43.8082H323.538L336.868 28.9091H347.082L330.686 47.1648H328.875L322.162 54.3608ZM314.193 66V16.5455H322.935V66H314.193ZM337.471 66L325.398 49.1207L331.29 42.9631L347.927 66H337.471Z" fill="black"/>
</svg>
